<?xml version="1.0" standalone="no"?>
<!DOCTYPE svg PUBLIC "-//W3C//DTD SVG 20010904//EN"
 "http://www.w3.org/TR/2001/REC-SVG-20010904/DTD/svg10.dtd">
<svg version="1.0" xmlns="http://www.w3.org/2000/svg"
 width="1440.000000pt" height="810.000000pt" viewBox="0 0 1440.000000 810.000000"
 preserveAspectRatio="xMidYMid meet">

<g transform="translate(0.000000,810.000000) scale(0.100000,-0.100000)"
fill="#000000" stroke="none">
<path d="M124 8084 c3 -9 6 -19 6 -24 0 -4 11 -11 25 -14 16 -4 31 -20 43 -49
17 -37 18 -45 5 -65 -12 -20 -12 -26 7 -52 30 -42 51 -52 86 -38 39 14 106
-16 114 -52 5 -23 11 -25 62 -28 55 -3 56 -3 63 28 4 16 7 30 8 30 1 0 17 4
35 9 25 8 32 7 32 -5 0 -8 -5 -13 -12 -12 -8 2 -17 -24 -24 -72 -15 -90 -17
-170 -5 -170 14 0 22 -30 8 -35 -6 -2 -38 -9 -70 -15 -32 -7 -57 -14 -54 -16
4 -4 40 2 123 21 20 4 22 12 23 81 2 105 35 314 50 314 3 0 69 7 146 15 77 8
178 15 225 15 112 0 353 -28 362 -43 12 -20 38 -181 45 -280 l6 -97 36 -9 c20
-5 60 -15 90 -21 l53 -13 -4 -62 -4 -63 61 -12 c33 -6 84 -18 113 -26 l54 -15
-4 -69 -3 -69 45 -17 c25 -9 49 -20 54 -24 10 -10 -8 -180 -30 -287 -20 -99
-48 -171 -87 -230 -32 -47 -33 -48 -79 -45 l-47 4 -22 -51 c-12 -28 -27 -51
-33 -50 -6 0 -32 4 -58 8 l-47 8 -37 -59 c-81 -132 -213 -246 -369 -319 -102
-48 -108 -48 -229 12 -141 69 -283 197 -357 323 l-22 38 -60 -5 -59 -5 -20 49
-21 50 -51 -3 -50 -3 -33 55 c-62 102 -118 339 -111 464 3 50 3 51 48 67 l45
17 5 73 5 74 108 24 109 25 -5 58 c-3 47 -1 61 12 68 14 8 14 9 -2 10 -10 0
-20 -7 -23 -15 -4 -8 -10 -13 -14 -10 -14 9 -22 -14 -15 -45 4 -17 13 -30 21
-30 8 0 14 -6 14 -14 0 -10 -31 -21 -101 -37 -67 -15 -108 -30 -120 -43 -11
-11 -19 -16 -19 -10 0 5 -5 2 -10 -6 -18 -27 -12 -78 10 -90 27 -14 19 -26
-28 -41 -20 -6 -44 -17 -52 -25 -8 -7 -19 -14 -25 -16 -6 -2 -9 -32 -7 -73 4
-69 3 -70 -27 -88 -32 -18 -40 -48 -22 -76 8 -12 13 -12 35 2 14 9 28 17 31
17 10 0 5 -48 -7 -52 -7 -3 -5 -13 7 -31 9 -15 30 -63 45 -107 32 -91 84 -178
114 -190 12 -4 35 -5 51 -3 28 4 32 1 52 -41 l23 -46 59 0 60 0 40 -58 c22
-33 63 -84 91 -116 100 -108 333 -240 416 -234 33 2 42 -5 110 -73 40 -42 76
-74 79 -71 11 11 4 37 -17 59 -17 18 -19 26 -10 35 9 9 28 -4 81 -55 44 -43
77 -67 92 -67 16 0 63 41 156 133 170 168 170 165 55 280 l-81 82 26 43 25 42
64 0 65 0 19 45 c19 44 19 45 66 43 40 -2 49 1 66 25 11 15 28 27 39 27 13 0
19 7 19 23 0 34 54 113 89 132 17 8 42 16 56 17 19 2 25 8 25 26 0 22 -3 24
-32 18 -17 -3 -45 -13 -61 -21 -17 -8 -32 -14 -33 -12 -2 1 4 30 12 62 8 33
17 115 21 182 l6 122 -34 20 c-18 11 -46 23 -61 26 -28 7 -40 40 -15 43 133
18 148 23 170 61 15 26 17 66 17 343 0 274 -2 317 -16 337 -35 49 -54 51 -481
50 -364 -1 -390 -3 -302 -14 131 -17 169 -24 169 -34 0 -18 -34 -20 -133 -6
-129 19 -324 19 -496 1 -128 -14 -161 -13 -161 4 0 11 19 17 75 26 41 6 49 11
59 36 7 20 20 31 38 35 21 4 28 11 28 29 0 23 -3 24 -79 24 l-78 0 -6 -37 c-8
-46 -54 -105 -101 -127 -41 -20 -115 -21 -159 -2 -43 17 -93 76 -108 126 l-12
40 -80 0 c-68 0 -78 -2 -73 -16z m1836 -183 c6 -12 10 -113 10 -260 0 -283 5
-270 -103 -272 -40 -1 -61 -4 -47 -6 38 -7 45 -20 15 -27 -16 -4 -61 1 -108
13 -45 11 -91 21 -102 23 -19 3 -19 4 3 23 14 12 22 31 22 50 0 25 -6 33 -37
46 -21 9 -65 22 -98 29 -73 16 -87 26 -61 45 17 13 17 20 6 115 -11 96 -27
164 -30 130 -1 -8 -8 5 -15 30 -7 25 -16 53 -20 63 -7 16 10 17 274 17 267 0
281 -1 291 -19z m-1363 -133 c-3 -7 -5 -2 -5 12 0 14 2 19 5 13 2 -7 2 -19 0
-25z m942 -1542 c62 -62 71 -76 63 -92 -13 -25 -197 -204 -208 -204 -12 0
-180 168 -173 173 2 3 36 25 75 50 39 25 91 68 115 96 24 28 46 51 49 51 3 0
38 -33 79 -74z m-341 -158 c-6 -18 -28 -21 -28 -4 0 9 7 16 16 16 9 0 14 -5
12 -12z"/>
<path d="M2586 8063 c-9 -55 9 -136 46 -205 130 -244 497 -233 618 17 27 56
44 146 36 189 -6 32 -10 36 -38 36 -25 0 -29 -3 -25 -20 5 -18 0 -20 -39 -20
-37 0 -44 3 -44 20 0 16 -7 20 -34 20 -29 0 -33 -3 -29 -20 5 -19 0 -20 -141
-20 -139 0 -146 1 -146 20 0 16 -7 20 -30 20 -23 0 -30 -4 -30 -20 0 -17 -7
-20 -40 -20 -33 0 -40 3 -40 20 0 15 -7 20 -29 20 -26 0 -30 -4 -35 -37z m144
-75 c0 -7 3 -23 6 -35 6 -21 3 -23 -35 -23 -22 0 -41 1 -41 3 0 1 -4 17 -9 35
l-10 32 45 0 c28 0 44 -4 44 -12z m350 0 c0 -7 -3 -23 -6 -35 -6 -22 -10 -23
-139 -23 -129 0 -133 1 -139 23 -13 48 -14 47 139 47 109 0 145 -3 145 -12z
m139 -20 c-5 -18 -9 -34 -9 -35 0 -2 -18 -3 -41 -3 -33 0 -40 3 -35 16 3 9 6
24 6 35 0 16 7 19 44 19 l45 0 -10 -32z m-442 -125 c9 -16 28 -40 42 -55 29
-32 11 -39 -29 -11 -34 22 -90 75 -90 85 0 4 13 8 30 8 21 0 34 -7 47 -27z
m253 17 c0 -14 -80 -100 -93 -100 -13 0 -97 85 -97 99 0 7 31 11 95 11 58 0
95 -4 95 -10z m140 2 c0 -14 -74 -79 -110 -97 l-34 -18 17 24 c9 13 28 41 42
62 20 29 32 37 55 37 17 0 30 -4 30 -8z"/>
<path d="M3625 8070 c33 -34 45 -38 45 -12 0 25 -20 42 -49 42 l-25 0 29 -30z"/>
<path d="M3732 8055 c61 -58 85 -58 145 -1 l47 43 -120 1 -119 1 47 -44z"/>
<path d="M4470 8076 c0 -19 7 -26 30 -31 17 -4 30 -12 30 -18 0 -7 7 -25 15
-40 13 -25 13 -32 0 -56 -13 -27 -12 -29 23 -64 35 -34 40 -36 67 -26 43 15
103 -11 117 -51 9 -28 13 -30 64 -30 52 0 55 1 60 29 5 23 15 33 51 46 38 15
49 15 69 4 23 -12 28 -10 64 26 38 37 39 40 24 63 -14 21 -14 27 3 67 14 34
25 46 46 51 20 4 27 12 27 30 0 23 -2 24 -75 24 l-74 0 -11 -40 c-22 -82 -99
-140 -185 -140 -86 0 -163 58 -185 140 l-11 40 -74 0 c-73 0 -75 -1 -75 -24z"/>
<path d="M6932 8018 c6 -141 73 -245 196 -305 50 -24 69 -28 147 -28 78 0 98
4 152 29 108 50 188 161 200 280 8 81 -1 106 -38 106 -26 0 -29 -3 -24 -20 6
-18 2 -20 -39 -20 -39 0 -46 3 -46 20 0 16 -7 20 -30 20 -23 0 -30 -4 -30 -20
0 -19 -7 -20 -146 -20 -141 0 -145 1 -139 20 5 17 2 20 -25 20 -23 0 -33 -5
-37 -20 -4 -16 -14 -20 -44 -20 -32 0 -39 3 -39 20 0 16 -7 20 -31 20 l-31 0
4 -82z m142 -40 c11 -43 7 -48 -33 -48 -32 0 -40 4 -45 23 -11 42 -7 47 33 47
32 0 40 -4 45 -22z m346 3 c0 -50 -4 -51 -146 -51 -125 0 -134 1 -134 19 0 11
-3 26 -6 35 -5 14 11 16 140 16 137 0 146 -1 146 -19z m144 -8 c-10 -41 -12
-43 -53 -43 -36 0 -37 1 -33 35 4 34 5 35 48 35 43 0 44 -1 38 -27z m-425
-158 c22 -31 41 -58 41 -60 0 -10 -77 39 -107 68 -40 38 -41 47 -4 47 23 0 36
-11 70 -55z m231 45 c0 -14 -80 -100 -93 -100 -13 0 -97 87 -97 100 0 6 39 10
95 10 58 0 95 -4 95 -10z m140 0 c0 -20 -98 -100 -123 -100 -4 0 9 25 29 55
30 45 42 55 65 55 16 0 29 -5 29 -10z"/>
<path d="M7971 8064 c31 -33 34 -34 37 -14 5 29 -15 50 -46 50 l-26 0 35 -36z"/>
<path d="M8072 8055 c62 -59 89 -60 146 -2 l43 44 -118 1 -118 1 47 -44z"/>
<path d="M8810 8076 c0 -18 7 -26 28 -31 20 -4 32 -17 44 -46 15 -36 16 -44 3
-69 -14 -26 -13 -29 22 -64 40 -39 45 -41 74 -25 15 8 31 6 63 -6 35 -13 45
-23 50 -46 5 -28 8 -29 61 -29 53 0 57 2 66 29 13 37 78 65 114 49 28 -13 64
6 90 46 13 20 14 28 4 44 -19 30 6 100 40 115 29 13 41 26 41 45 0 8 -22 12
-78 12 l-79 0 -12 -40 c-24 -80 -103 -140 -186 -140 -85 0 -169 67 -182 144
l-6 36 -78 0 c-77 0 -79 -1 -79 -24z"/>
<path d="M11272 8018 c6 -140 67 -237 188 -303 46 -24 69 -30 140 -33 109 -5
177 19 253 88 76 70 110 141 115 246 l5 84 -37 0 c-33 0 -37 -2 -31 -20 6 -18
2 -20 -35 -20 -33 0 -43 4 -47 20 -4 14 -14 20 -34 20 -22 0 -29 -5 -29 -20 0
-19 -7 -20 -140 -20 -133 0 -140 1 -140 20 0 15 -7 20 -29 20 -21 0 -32 -6
-36 -20 -5 -16 -15 -20 -47 -20 -35 0 -40 2 -35 20 4 17 0 20 -30 20 l-35 0 4
-82z m142 -40 c11 -43 7 -48 -34 -48 -25 0 -40 5 -40 13 0 6 -3 22 -6 35 -6
20 -3 22 34 22 33 0 41 -4 46 -22z m346 0 c0 -46 -9 -49 -146 -46 l-129 3 -3
33 -3 32 140 0 c140 0 141 0 141 -22z m144 -5 c-10 -41 -12 -43 -54 -43 -34 0
-38 2 -33 23 10 45 12 47 53 47 39 0 40 -1 34 -27z m-424 -161 c22 -29 36 -52
32 -52 -17 0 -101 60 -111 79 -15 27 -14 28 14 27 19 -1 37 -17 65 -54z m189
-8 c-24 -24 -46 -44 -50 -44 -3 0 -27 21 -53 48 l-47 47 93 5 c51 3 95 1 97
-3 2 -5 -16 -29 -40 -53z m181 58 c0 -18 -101 -102 -124 -102 -2 0 10 22 27
49 21 32 41 51 57 54 14 2 28 5 33 6 4 0 7 -3 7 -7z"/>
<path d="M12311 8064 c31 -33 34 -34 37 -14 5 29 -15 50 -46 50 l-26 0 35 -36z"/>
<path d="M12420 8055 c57 -59 82 -59 141 -1 l45 43 -115 2 -115 1 44 -45z"/>
<path d="M13150 8076 c0 -19 7 -26 29 -31 39 -8 68 -78 50 -119 -12 -25 -10
-30 24 -63 33 -34 38 -36 63 -24 41 18 111 -11 119 -50 6 -28 9 -29 61 -29 52
0 56 2 65 29 12 34 92 72 112 52 20 -20 44 -12 76 24 35 40 35 39 20 67 -17
32 14 104 52 117 19 7 29 17 29 30 0 19 -6 21 -78 21 l-79 0 -12 -40 c-15 -50
-65 -109 -108 -126 -106 -45 -237 23 -259 134 l-6 32 -79 0 c-77 0 -79 -1 -79
-24z"/>
<path d="M2324 8016 c-10 -26 4 -48 28 -44 17 2 23 10 23 28 0 18 -6 26 -23
28 -13 2 -25 -3 -28 -12z"/>
<path d="M6670 8016 c-18 -22 -5 -48 22 -44 17 2 23 10 23 28 0 29 -26 38 -45
16z"/>
<path d="M11004 8015 c-10 -25 4 -45 30 -45 27 0 42 26 25 46 -15 19 -48 18
-55 -1z"/>
<path d="M5445 7991 c-11 -5 -31 -21 -45 -36 l-25 -27 -3 -306 c-3 -327 -1
-346 46 -382 22 -18 41 -20 183 -20 l159 0 0 -30 c0 -29 -1 -30 -49 -30 -34 0
-56 -6 -75 -21 -54 -42 -42 -44 240 -42 147 1 269 4 271 7 3 3 -6 16 -20 30
-21 21 -36 26 -77 26 -49 0 -50 1 -50 30 l0 30 150 0 c245 0 234 -17 238 365
4 311 0 345 -44 386 l-26 24 -426 2 c-235 1 -436 -2 -447 -6z m855 -90 c6 -12
10 -113 10 -260 0 -204 -2 -242 -16 -255 -13 -14 -65 -16 -410 -16 -253 0
-402 4 -415 10 -18 10 -19 24 -19 263 0 184 3 256 12 265 9 9 116 12 420 12
392 0 408 -1 418 -19z m-400 -587 c11 -12 11 -18 -2 -30 -16 -16 -48 -9 -48
10 0 13 20 36 31 36 4 0 12 -7 19 -16z"/>
<path d="M9778 7989 c-15 -6 -36 -25 -48 -43 -19 -32 -20 -49 -20 -335 0 -408
-10 -391 232 -391 l158 0 0 -30 c0 -29 -1 -30 -49 -30 -51 0 -101 -28 -101
-56 0 -12 41 -14 270 -14 290 1 302 3 244 49 -19 15 -41 21 -75 21 -48 0 -49
1 -49 30 l0 30 159 0 c142 0 161 2 183 20 47 36 49 55 46 383 l-3 307 -33 32
-32 33 -428 2 c-267 1 -437 -2 -454 -8z m860 -81 c9 -9 12 -80 12 -259 0 -212
-2 -250 -16 -263 -13 -14 -65 -16 -414 -16 -349 0 -401 2 -414 16 -14 13 -16
51 -16 264 0 227 2 250 18 259 26 16 814 15 830 -1z m-395 -602 c9 -22 -19
-42 -37 -26 -19 15 -10 40 14 40 10 0 20 -6 23 -14z"/>
<path d="M14121 7987 c-13 -6 -34 -25 -45 -40 -20 -27 -21 -42 -24 -330 -4
-403 -8 -395 199 -397 68 -1 130 -1 137 -1 8 1 12 23 12 76 l0 75 -118 0
c-103 0 -121 3 -135 18 -15 16 -17 49 -17 260 0 205 2 243 16 256 12 13 40 16
135 16 l119 0 0 40 0 40 -127 0 c-82 0 -137 -5 -152 -13z"/>
<path d="M895 7860 c-44 -4 -101 -10 -127 -14 l-46 -7 -11 -62 c-9 -55 -31
-266 -31 -308 0 -12 -22 -20 -86 -34 l-86 -18 5 -63 5 -62 -67 -11 c-36 -6
-88 -16 -114 -22 l-49 -11 4 -64 3 -64 -52 -22 c-50 -21 -53 -24 -53 -59 0
-104 48 -283 93 -351 23 -33 33 -36 93 -23 17 4 25 -5 45 -46 l23 -51 52 5 52
5 47 -74 c83 -132 229 -262 351 -314 64 -28 80 -26 175 22 67 33 103 61 175
132 50 50 111 123 137 162 l46 70 54 -4 54 -4 21 50 21 49 43 -7 c24 -5 46 -6
51 -3 20 12 70 134 87 212 25 118 34 211 20 211 -5 0 -30 9 -55 21 l-45 21 0
63 c0 41 -4 65 -12 68 -7 2 -57 12 -112 22 l-99 18 6 59 c6 68 6 68 -108 89
l-65 12 0 66 c0 75 -17 228 -31 283 -8 31 -15 38 -42 43 -40 7 -257 25 -277
23 -8 0 -51 -4 -95 -8z m17 -137 c11 -12 26 -21 32 -20 8 1 12 -64 14 -223 2
-123 1 -222 -2 -219 -3 3 -6 95 -6 206 l-1 200 -35 34 c-31 30 -34 38 -32 83
l1 51 4 -45 c3 -27 12 -54 25 -67z m35 26 c20 -19 33 -29 29 -22 -3 6 -2 14 3
17 5 3 9 -94 10 -232 1 -180 -2 -232 -10 -218 -8 13 -10 79 -7 212 l4 194 -29
27 c-29 28 -30 28 -17 3 12 -23 12 -24 -4 -11 -9 8 -15 20 -12 27 3 7 1 16 -4
19 -6 4 -9 21 -9 38 2 28 2 29 6 6 2 -14 20 -41 40 -60z m47 53 l19 -27 -26
24 c-37 34 -44 21 -7 -14 l30 -29 -2 -240 -3 -241 -2 230 c-2 127 -5 236 -8
244 -4 10 -9 10 -18 2 -11 -8 -19 -5 -34 12 -10 12 -18 28 -17 35 1 6 2 16 3
20 3 20 47 9 65 -16z m25 6 c12 -19 14 -72 12 -273 -1 -137 -4 -252 -7 -254
-2 -2 -4 112 -4 254 0 226 -2 261 -17 277 -9 10 -12 18 -7 18 5 0 16 -10 23
-22z m91 -67 c0 -59 5 -98 15 -117 10 -19 15 -23 15 -12 0 12 6 16 18 12 9 -2
7 1 -5 7 -29 15 -37 39 -19 57 27 27 45 -2 49 -76 l3 -67 2 71 c2 58 -1 74
-16 87 -10 10 -22 14 -27 10 -4 -5 -5 -3 -1 4 3 6 1 15 -5 19 -9 5 -10 0 -7
-14 4 -12 2 -24 -2 -27 -5 -3 -8 28 -8 67 1 52 3 62 7 37 5 -33 76 -128 87
-117 2 3 -7 15 -21 28 -14 13 -25 28 -25 34 0 14 58 -43 63 -63 2 -9 3 -3 1
12 -2 18 0 26 7 21 7 -4 10 -58 8 -158 -1 -83 0 -163 3 -177 5 -23 3 -25 -18
-21 -33 6 -39 19 -20 47 12 18 16 46 14 107 -1 47 -3 63 -5 38 -2 -25 -6 -52
-10 -60 -3 -8 -5 -18 -5 -22 1 -5 -4 -7 -11 -5 -8 1 -13 -13 -15 -41 -4 -48
27 -102 58 -102 24 0 52 -28 43 -43 -5 -8 -8 -8 -11 1 -6 18 -20 15 -25 -5 -3
-14 -7 -11 -16 12 -7 17 -24 42 -37 56 -23 24 -25 34 -22 90 2 49 7 64 18 64
12 0 15 15 16 70 1 40 -1 51 -3 25 -2 -25 -12 -54 -22 -65 -26 -28 -37 -202
-15 -233 8 -12 24 -22 34 -22 10 0 21 -4 25 -9 13 -21 -42 -5 -63 19 -21 23
-22 31 -18 130 5 117 7 130 15 127 8 -3 11 8 11 43 0 17 -4 30 -9 30 -5 0 -8
-13 -6 -30 4 -29 -7 -40 -20 -20 -4 6 -16 8 -28 5 -19 -5 -20 -5 -4 5 9 6 22
8 27 5 6 -3 10 -2 10 3 0 17 -13 22 -27 10 -22 -18 -52 16 -36 41 13 20 21
176 10 187 -4 4 -7 -32 -7 -80 0 -64 -3 -85 -12 -80 -7 5 -9 2 -5 -8 3 -9 3
-19 -1 -22 -13 -14 -8 -46 7 -47 12 0 11 -2 -3 -8 -19 -7 -19 -8 2 -13 24 -7
31 -43 9 -51 -30 -11 -34 9 -32 160 2 84 -1 151 -5 148 -5 -3 -11 -1 -15 5 -4
6 11 10 39 10 l46 0 0 -89z m53 45 c4 -23 3 -35 -3 -30 -4 5 -9 20 -10 34 -5
57 4 54 13 -4z m-345 -69 c9 -10 31 -25 49 -32 21 -9 33 -21 33 -33 0 -11 9
-31 20 -45 18 -22 20 -40 20 -154 l0 -129 -37 -35 -37 -34 32 42 33 42 -3 123
c-2 87 -6 123 -15 123 -7 0 -18 6 -25 14 -11 12 -11 13 1 6 9 -5 12 -4 7 3 -4
7 -14 12 -22 12 -8 0 -21 15 -29 33 -7 18 -23 41 -34 51 -17 15 -21 30 -19 70
l1 51 4 -45 c3 -25 12 -53 21 -63z m52 58 c0 -36 5 -50 29 -72 15 -16 26 -34
23 -42 -3 -10 0 -11 9 -5 11 6 12 5 2 -8 -7 -8 -9 -19 -5 -23 4 -5 1 -5 -5 -1
-7 4 -13 18 -13 31 0 15 -7 26 -20 30 -11 3 -20 14 -20 23 0 14 -2 15 -10 2
-16 -25 -50 16 -50 60 0 43 5 50 37 50 21 0 23 -5 23 -45z m320 24 c0 -11 9
-34 21 -50 26 -37 16 -38 -16 -1 -24 27 -34 72 -15 72 6 0 10 -9 10 -21z m30
0 c0 -12 18 -43 40 -69 40 -48 53 -73 25 -50 -9 8 -15 9 -15 2 0 -6 5 -14 10
-17 8 -5 7 -12 -2 -23 -8 -10 -9 -13 -1 -9 6 4 15 3 18 -3 4 -6 1 -9 -7 -8 -9
2 -15 -12 -19 -42 -5 -33 -7 -21 -6 43 0 85 -1 89 -32 121 -30 30 -42 76 -21
76 6 0 10 -10 10 -21z m52 -46 c12 -13 19 -25 16 -28 -10 -10 -58 56 -57 78 0
21 1 20 10 -3 6 -14 20 -35 31 -47z m-497 3 c-3 -48 0 -57 23 -78 21 -18 23
-18 9 -2 -23 28 -22 41 3 19 11 -10 19 -23 18 -30 -2 -6 16 -34 39 -61 l42
-50 2 -93 c1 -58 -2 -96 -10 -104 -6 -6 -11 -19 -11 -29 0 -10 -11 -23 -25
-30 -13 -6 -26 -18 -28 -27 -3 -9 -5 -4 -6 11 -2 42 16 76 41 80 22 3 23 8 26
95 3 85 1 92 -16 88 -11 -2 -19 2 -19 10 0 8 4 12 9 9 4 -3 8 -1 8 4 0 12 -55
63 -61 57 -3 -3 -16 7 -30 22 l-24 28 25 -20 c23 -18 23 -18 -2 11 -24 25 -28
39 -28 87 0 31 4 57 9 57 5 0 7 -24 6 -54z m495 44 c0 -5 -4 -10 -10 -10 -5 0
-10 5 -10 10 0 6 5 10 10 10 6 0 10 -4 10 -10z m-510 -125 c6 3 7 0 4 -8 -3
-9 11 -29 39 -52 l44 -37 -3 -64 c-3 -45 0 -64 9 -64 8 0 7 -3 -3 -9 -8 -6
-18 -7 -22 -5 -4 3 -8 -39 -9 -93 -1 -78 -3 -91 -10 -63 -12 50 -9 180 5 177
6 -1 12 14 14 34 2 25 -3 40 -18 54 -11 10 -20 30 -20 44 0 13 -11 36 -24 50
-27 29 -30 39 -25 96 2 36 3 35 6 -13 2 -29 8 -50 13 -47z m-4 -47 c10 -12 14
-18 7 -15 -8 5 -10 -5 -6 -35 3 -24 3 -40 -1 -37 -4 4 -8 24 -10 46 -1 22 -6
45 -10 51 -12 19 -1 14 20 -10z m21 -60 c-3 -7 -5 -2 -5 12 0 14 2 19 5 13 2
-7 2 -19 0 -25z m357 -55 c-8 -41 -13 -40 -11 0 1 19 5 33 9 31 4 -2 4 -17 2
-31z m-316 -6 c2 -18 -2 -29 -12 -33 -13 -5 -16 -26 -16 -117 0 -61 -2 -108
-4 -106 -2 2 -6 63 -9 135 -4 91 -2 135 6 143 17 17 32 8 35 -22z m263 -34
c13 -16 12 -17 -3 -4 -17 13 -22 21 -14 21 2 0 10 -8 17 -17z m-34 -45 c-3 -7
-5 -2 -5 12 0 14 2 19 5 13 2 -7 2 -19 0 -25z m-159 -26 c3 -20 -7 -27 -32
-23 -5 1 -13 -4 -18 -11 -9 -13 0 39 9 55 9 16 38 1 41 -21z m-204 -78 c4 -47
6 -87 4 -89 -2 -1 -75 -21 -163 -43 -88 -22 -168 -43 -177 -47 -15 -6 -18 -1
-18 33 0 39 2 42 37 51 21 6 72 16 115 22 l77 12 -6 63 -6 63 34 9 c19 6 48
11 65 11 l31 1 7 -86z m776 66 c17 -9 19 -17 14 -68 l-6 -57 108 -20 109 -20
3 -42 c2 -24 1 -43 -1 -43 -2 0 -28 8 -58 19 -45 15 -124 35 -266 66 -22 5
-23 10 -23 97 l0 91 50 -6 c27 -3 58 -11 70 -17z m-169 -143 c-10 -9 -11 -8
-5 6 3 10 9 15 12 12 3 -3 0 -11 -7 -18z m-428 -105 c26 -27 38 -88 20 -105
-3 -4 -5 -33 -4 -65 2 -51 -1 -60 -26 -83 -21 -21 -43 -28 -91 -33 -35 -4 -69
-9 -77 -12 -9 -4 -14 7 -17 36 -2 23 0 44 4 46 15 9 9 134 -7 150 -8 9 -15 28
-15 44 0 27 2 29 58 35 31 3 66 7 77 9 45 7 52 5 78 -22z m357 15 c47 -7 85
-16 84 -22 0 -5 -4 -29 -9 -53 -8 -42 -9 -43 -44 -40 -28 2 -35 7 -33 21 2 9
-1 17 -7 17 -15 0 -35 -132 -20 -140 8 -6 9 -19 2 -46 l-9 -38 -54 3 c-30 1
-58 5 -62 7 -10 6 2 67 16 79 12 11 12 8 19 90 3 33 3 52 1 43 -4 -13 -16 -18
-46 -18 -37 0 -40 2 -34 23 3 12 6 37 6 55 l0 32 53 -1 c28 0 90 -6 137 -12z
m311 -63 c30 -9 57 -19 62 -23 9 -9 -12 -73 -23 -66 -4 3 -10 -2 -14 -10 -3
-8 -3 -15 0 -15 12 0 44 21 44 30 0 5 4 20 10 34 l9 25 67 -24 c36 -13 68 -26
71 -29 2 -2 -3 -18 -12 -36 -13 -25 -21 -31 -37 -27 -12 3 -33 0 -47 -7 -24
-13 -26 -18 -23 -70 3 -40 8 -56 18 -56 17 0 17 -3 0 -45 l-15 -34 -61 21
c-58 19 -61 22 -55 47 3 14 12 31 19 36 13 10 18 45 6 45 -12 0 -45 -29 -33
-30 14 0 -5 -70 -20 -70 -5 0 -33 7 -61 15 l-53 16 10 38 c6 22 15 37 21 35 6
-2 21 28 32 66 12 39 17 70 12 70 -9 0 -2 54 9 73 5 9 0 10 64 -9z m-1043 -13
c16 -14 23 -32 25 -68 2 -27 5 -53 8 -58 3 -6 7 -29 8 -52 4 -67 -21 -98 -101
-128 -38 -14 -71 -25 -73 -25 -9 0 -24 75 -16 80 13 8 -19 140 -34 140 -10 0
-30 69 -22 76 9 8 146 53 162 53 11 0 30 -8 43 -18z m502 -340 c0 -22 3 -46 6
-55 5 -13 -1 -16 -30 -16 -33 0 -36 3 -36 28 0 15 -3 37 -6 49 -4 15 -1 22 13
26 47 12 53 8 53 -32z m88 33 c19 -5 22 -13 22 -53 0 -26 -2 -50 -5 -53 -3 -2
-18 -3 -35 0 -27 4 -30 8 -30 42 0 41 8 70 19 70 3 0 16 -3 29 -6z m-176 -59
l3 -55 -33 0 c-35 0 -37 4 -45 62 -6 39 0 44 50 47 19 1 22 -5 25 -54z m298
38 c0 -10 -3 -35 -6 -55 -6 -35 -9 -38 -40 -38 -32 0 -34 2 -34 33 0 62 9 77
46 77 26 0 34 -4 34 -17z m-396 -24 c12 -63 8 -76 -24 -81 -28 -4 -30 -2 -35
31 -4 20 -8 44 -9 53 -4 18 7 26 40 27 16 1 23 -7 28 -30z m481 20 c4 -6 4
-30 0 -55 -6 -41 -9 -44 -36 -44 -27 0 -29 2 -29 39 0 22 3 46 6 55 7 18 49
22 59 5z m-571 -21 c3 -13 6 -38 6 -55 0 -30 -3 -33 -29 -33 -26 0 -29 4 -35
45 -8 53 -3 65 28 65 16 0 26 -7 30 -22z m659 -13 c-5 -63 -12 -75 -44 -75
-24 0 -30 3 -25 16 3 9 6 34 6 55 0 39 1 40 33 37 29 -3 32 -6 30 -33z m-749
8 c12 -43 18 -93 10 -93 -5 0 -18 -3 -30 -6 -17 -4 -22 1 -33 36 -7 23 -15 48
-17 55 -5 12 10 19 53 24 6 0 14 -7 17 -16z m843 3 c6 -5 -18 -96 -27 -101 -4
-2 -18 -1 -31 3 -24 7 -24 9 -16 61 9 53 9 53 40 47 17 -3 32 -8 34 -10z
m-925 -55 c15 -48 15 -49 -6 -55 -38 -10 -44 -6 -62 40 -19 50 -12 64 32 64
16 0 24 -11 36 -49z m1017 40 c19 -12 -21 -101 -46 -101 -38 0 -46 15 -33 56
7 22 15 42 17 47 6 10 45 9 62 -2z m-496 -102 c-8 -8 -13 -7 -18 2 -5 8 -4 10
3 5 7 -4 12 -2 12 5 0 7 3 9 7 6 4 -4 2 -12 -4 -18z m-193 -2 c0 -7 -4 -17 -8
-22 -4 -6 -5 -30 -1 -55 l6 -45 2 45 c1 25 6 52 12 60 8 12 9 11 5 -5 -2 -11
-8 -56 -12 -100 -7 -77 -8 -78 -15 -35 -19 132 -20 170 -4 170 8 0 15 -6 15
-13z m69 -71 c-14 -15 -10 -30 4 -17 11 9 14 5 14 -22 0 -17 -2 -24 -4 -14 -5
20 -24 18 -31 -3 -3 -7 0 -10 5 -7 5 3 7 -10 5 -30 -3 -19 -7 -31 -11 -26 -3
6 -14 9 -24 7 -16 -2 -17 3 -11 44 3 26 12 53 18 61 8 11 8 15 -1 18 -21 7
-14 26 7 20 17 -4 20 0 21 26 1 30 2 30 9 -8 5 -22 4 -44 -1 -49z m71 74 c0
10 3 11 11 3 6 -6 11 -56 12 -114 l2 -104 27 1 c15 0 26 -2 26 -5 -2 -19 4
-22 17 -11 8 7 15 28 15 46 0 19 3 34 8 34 4 0 5 -25 4 -55 -2 -30 -8 -55 -14
-55 -5 0 -6 4 -3 10 3 6 -1 7 -9 4 -9 -3 -13 -11 -9 -18 3 -6 2 -7 -3 -3 -5 5
-9 14 -9 19 0 6 -6 13 -14 16 -9 3 -11 0 -6 -9 5 -8 -1 -5 -13 5 -20 17 -26
15 -23 -6 0 -4 -7 -4 -17 -1 -14 6 -15 4 -5 -8 10 -13 10 -16 -2 -16 -8 0 -12
4 -9 9 3 4 0 8 -5 8 -6 0 -11 19 -11 43 0 38 -11 119 -25 184 -4 17 -2 21 10
17 10 -4 15 -19 15 -44 0 -20 3 -71 6 -113 6 -63 9 -75 20 -66 8 6 14 19 13
28 0 12 -2 11 -9 -4 -7 -16 -9 -11 -9 21 -1 23 -4 77 -7 120 -4 57 -3 75 5 64
9 -13 11 -13 11 0z m113 -30 c-6 -44 2 -74 17 -65 8 5 8 11 0 20 -15 18 -9 57
8 63 11 3 11 0 1 -16 -7 -10 -9 -27 -6 -36 7 -19 25 -22 24 -3 0 6 1 21 2 32
2 18 3 18 12 -4 6 -16 6 -28 -2 -37 -9 -11 -8 -14 5 -14 10 0 14 -5 10 -11 -4
-8 -9 -8 -17 0 -22 22 -30 10 -8 -13 14 -14 18 -26 12 -30 -5 -4 -8 -14 -5
-24 5 -13 4 -14 -4 -3 -8 11 -10 11 -14 0 -3 -8 -8 -11 -12 -8 -4 4 3 17 16
29 21 20 22 21 3 18 -13 -2 -20 2 -19 13 1 9 -6 16 -15 15 -12 -1 -17 10 -19
43 -2 24 -1 50 2 57 10 26 14 14 9 -26z m-352 -2 c4 -6 12 -37 18 -69 33 -163
38 -199 31 -199 -4 0 -37 29 -74 65 -65 63 -146 175 -146 201 0 24 157 26 171
2z m585 11 c-9 14 26 1 36 -13 5 -7 8 -7 8 2 0 6 8 12 18 11 9 0 12 -3 5 -5
-7 -3 -10 -11 -7 -18 8 -20 -71 -129 -142 -196 -36 -34 -68 -59 -71 -57 -2 3
8 66 23 141 l27 135 36 3 c20 2 44 -1 55 -5 12 -6 16 -6 12 2z m-281 -167 c3
-3 5 8 5 24 0 21 3 25 9 15 7 -11 10 -10 14 5 2 10 5 -3 6 -29 1 -30 -3 -46
-9 -42 -6 4 -7 12 -3 18 4 7 0 7 -10 -1 -26 -21 -37 -5 -36 51 l1 52 9 -44 c5
-24 11 -46 14 -49z m-109 -6 c1 -49 -20 -42 -24 8 -2 28 0 37 10 34 7 -3 13
-21 14 -42z m179 -78 c-13 -9 -13 -10 -6 42 l5 45 6 -40 c3 -22 1 -43 -5 -47z
m-224 47 c7 19 8 19 8 -2 1 -13 -3 -23 -8 -23 -5 0 -11 -6 -14 -12 -2 -7 -3
-5 -2 5 2 9 -1 17 -5 17 -4 0 -5 10 -2 23 7 22 7 22 11 -3 3 -23 4 -24 12 -5z
m-64 -7 c-3 -8 -6 -5 -6 6 -1 11 2 17 5 13 3 -3 4 -12 1 -19z m20 -15 c-3 -10
-5 -4 -5 12 0 17 2 24 5 18 2 -7 2 -21 0 -30z m99 -36 c-2 -19 2 -23 18 -23
29 2 48 15 40 28 -4 7 -2 8 5 4 6 -4 9 -11 6 -16 -6 -10 24 -22 36 -14 5 3 8
0 7 -7 -2 -6 3 -14 11 -17 9 -3 11 0 6 8 -5 9 -4 11 4 6 6 -4 9 -12 6 -17 -4
-5 0 -9 7 -9 7 0 -5 -12 -27 -25 -22 -14 -46 -23 -53 -20 -7 3 -11 1 -8 -4 10
-16 -18 -18 -49 -5 -25 11 -26 13 -9 14 14 0 21 6 20 18 0 9 4 16 11 15 6 -1
10 4 9 12 -3 21 -16 31 -16 13 0 -10 -10 -15 -32 -14 -30 1 -33 4 -39 38 -3
20 -2 35 3 32 4 -3 8 -18 8 -35 0 -21 5 -29 17 -29 13 0 14 3 5 12 -16 16 -15
45 1 51 7 3 5 6 -5 6 -10 1 -18 6 -18 11 0 7 6 7 19 0 12 -6 18 -18 17 -33z
m-89 -19 c-3 -7 -5 -2 -5 12 0 14 2 19 5 13 2 -7 2 -19 0 -25z m35 -43 c3 -13
1 -22 -3 -19 -9 5 -13 44 -5 44 2 0 6 -11 8 -25z m48 -9 c0 -2 -7 -9 -15 -16
-13 -11 -14 -10 -9 4 5 14 24 23 24 12z"/>
<path d="M933 7795 c0 -19 33 -49 41 -37 3 5 -5 19 -18 31 -17 16 -23 18 -23
6z m28 -22 c13 -16 12 -17 -3 -4 -17 13 -22 21 -14 21 2 0 10 -8 17 -17z"/>
<path d="M1063 7740 c0 -25 2 -35 4 -22 2 12 2 32 0 45 -2 12 -4 2 -4 -23z"/>
<path d="M1055 7680 c3 -5 8 -10 11 -10 2 0 4 5 4 10 0 6 -5 10 -11 10 -5 0
-7 -4 -4 -10z"/>
<path d="M1146 7672 c-3 -6 -1 -14 5 -17 15 -10 25 3 12 16 -7 7 -13 7 -17 1z"/>
<path d="M1095 7619 c-10 -15 3 -25 16 -12 7 7 7 13 1 17 -6 3 -14 1 -17 -5z"/>
<path d="M1056 7542 c-3 -6 -1 -14 5 -17 15 -10 25 3 12 16 -7 7 -13 7 -17 1z"/>
<path d="M1220 7385 c0 -8 5 -15 10 -15 6 0 10 7 10 15 0 8 -4 15 -10 15 -5 0
-10 -7 -10 -15z"/>
<path d="M860 7650 c0 -5 5 -10 10 -10 6 0 10 5 10 10 0 6 -4 10 -10 10 -5 0
-10 -4 -10 -10z"/>
<path d="M837 7723 c3 -7 6 -13 8 -13 2 0 5 6 8 13 3 8 -1 14 -8 14 -7 0 -11
-6 -8 -14z"/>
<path d="M856 7332 c-3 -6 -1 -14 5 -17 15 -10 25 3 12 16 -7 7 -13 7 -17 1z"/>
<path d="M810 7571 c0 -6 5 -13 10 -16 6 -3 10 1 10 9 0 9 -4 16 -10 16 -5 0
-10 -4 -10 -9z"/>
<path d="M785 7510 c-4 -6 -3 -16 3 -22 6 -6 12 -6 17 2 4 6 3 16 -3 22 -6 6
-12 6 -17 -2z"/>
<path d="M856 7413 c-11 -11 -6 -23 9 -23 8 0 15 4 15 9 0 13 -16 22 -24 14z"/>
<path d="M713 7133 c-31 -4 -46 -27 -23 -35 15 -5 26 -198 12 -198 -7 0 -12
-7 -12 -16 0 -12 6 -15 23 -10 12 3 36 6 54 6 46 0 93 43 93 84 0 18 -5 37
-12 44 -9 9 -9 15 0 24 18 18 14 73 -6 91 -18 17 -54 19 -129 10z m107 -58 c0
-36 -3 -38 -52 -49 -27 -6 -28 -5 -28 32 0 47 4 52 47 52 31 0 33 -2 33 -35z
m0 -108 c0 -40 -15 -57 -52 -57 -27 0 -28 2 -28 45 l0 45 40 0 c39 0 40 -1 40
-33z"/>
<path d="M765 7070 c3 -5 13 -10 21 -10 8 0 14 5 14 10 0 6 -9 10 -21 10 -11
0 -17 -4 -14 -10z"/>
<path d="M776 6973 c-12 -12 -6 -33 9 -33 8 0 15 6 15 14 0 17 -14 28 -24 19z"/>
<path d="M1057 7114 c-7 -36 1 -45 17 -21 7 9 26 17 41 17 26 0 27 -2 21 -37
-3 -21 -9 -64 -12 -95 -4 -34 -12 -59 -20 -62 -25 -10 -14 -24 22 -28 36 -4
56 8 35 22 -9 5 -8 29 5 98 16 91 17 92 45 92 23 0 29 -5 29 -21 0 -28 22 -19
31 13 8 31 3 33 -122 43 l-86 7 -6 -28z"/>
<path d="M1486 7064 c-3 -7 0 -14 7 -17 16 -5 -42 -187 -60 -187 -27 0 -12
-28 19 -34 32 -6 59 6 40 18 -20 12 1 47 39 66 21 11 41 20 44 20 3 0 5 -25 5
-55 0 -39 -4 -54 -12 -52 -29 5 -10 -28 20 -37 36 -10 50 -3 35 16 -6 7 -11
44 -12 81 l-2 68 38 16 c21 8 45 16 52 18 29 4 21 22 -16 33 -37 11 -67 2 -42
-13 8 -5 -12 -20 -56 -42 -37 -18 -70 -32 -71 -30 -9 9 29 97 42 97 8 0 14 6
14 14 0 19 -77 38 -84 20z"/>
<path d="M371 7049 c-65 -23 -70 -27 -51 -42 20 -15 53 -167 44 -203 -6 -24
-5 -26 12 -20 10 5 38 15 62 23 27 10 48 25 56 42 13 26 11 87 -4 96 -4 3 -5
24 -3 48 5 38 2 47 -18 61 -28 19 -30 19 -98 -5z m79 -34 c5 -14 7 -31 4 -39
-5 -14 -63 -40 -71 -33 -2 2 -4 21 -6 42 -2 34 1 40 23 46 39 11 40 11 50 -16z
m21 -118 c6 -22 3 -33 -12 -48 -24 -24 -59 -25 -59 -1 0 9 -3 27 -6 39 -5 18
-1 25 17 32 36 15 52 9 60 -22z"/>
<path d="M400 6990 c0 -13 5 -18 15 -14 8 4 15 12 15 20 0 8 -7 14 -15 14 -8
0 -15 -9 -15 -20z"/>
<path d="M420 6879 c0 -24 23 -21 28 4 2 10 -3 17 -12 17 -10 0 -16 -9 -16
-21z"/>
<path d="M925 6550 c-3 -5 -1 -10 4 -10 6 0 11 5 11 10 0 6 -2 10 -4 10 -3 0
-8 -4 -11 -10z"/>
<path d="M906 6503 c-4 -15 -9 -36 -12 -45 -3 -12 0 -18 9 -18 10 0 13 7 10
20 -3 11 -1 26 5 33 6 7 7 19 3 26 -6 9 -10 4 -15 -16z"/>
<path d="M1013 6475 c0 -22 2 -30 4 -17 2 12 2 30 0 40 -3 9 -5 -1 -4 -23z"/>
<path d="M952 6425 c0 -16 2 -22 5 -12 2 9 2 23 0 30 -3 6 -5 -1 -5 -18z"/>
<path d="M1065 6272 c-10 -7 -18 -32 -11 -32 3 0 17 5 33 11 22 8 24 12 13 19
-18 12 -22 12 -35 2z"/>
<path d="M3505 7700 l-130 -130 90 0 c50 0 106 3 126 6 l37 6 7 120 c4 66 5
121 3 123 -2 3 -62 -54 -133 -125z"/>
<path d="M3664 7689 l-9 -144 -135 -3 c-74 -2 -137 -5 -139 -8 -3 -3 36 -46
87 -97 l92 -92 145 145 c80 80 145 149 145 155 0 6 -40 50 -89 99 l-89 88 -8
-143z"/>
<path d="M7848 7703 c-71 -71 -128 -130 -128 -133 0 -3 56 -4 124 -2 l124 3 7
72 c4 40 5 98 3 130 l-3 57 -127 -127z"/>
<path d="M8007 7693 c-4 -75 -9 -139 -12 -141 -3 -3 -66 -8 -140 -10 -74 -3
-135 -7 -135 -11 0 -4 40 -46 89 -95 75 -75 91 -87 107 -78 11 6 79 72 152
147 118 119 132 138 121 153 -21 28 -163 172 -170 172 -3 0 -9 -62 -12 -137z"/>
<path d="M12188 7703 c-71 -71 -128 -130 -128 -133 0 -3 56 -4 126 -2 88 2
126 7 130 16 3 7 3 65 2 129 l-3 117 -127 -127z"/>
<path d="M12348 7696 c-2 -74 -7 -138 -11 -142 -4 -4 -68 -10 -142 -12 -74 -3
-135 -7 -135 -11 0 -10 174 -181 185 -181 12 0 295 282 295 295 0 10 -171 185
-181 185 -4 0 -8 -60 -11 -134z"/>
<path d="M4777 7380 c-28 -40 7 -85 55 -72 22 5 35 49 21 71 -16 25 -59 26
-76 1z"/>
<path d="M9122 7388 c-22 -22 -14 -64 14 -76 46 -21 82 15 64 63 -7 19 -17 25
-38 25 -15 0 -33 -5 -40 -12z"/>
<path d="M13462 7388 c-20 -20 -14 -56 13 -74 23 -15 27 -15 50 0 27 18 31 36
15 67 -12 22 -59 26 -78 7z"/>
<path d="M2284 7218 c-66 -32 -43 -138 30 -138 50 0 76 24 76 70 0 30 -6 43
-26 59 -29 23 -48 25 -80 9z"/>
<path d="M6615 7208 c-55 -47 -26 -128 45 -128 72 0 101 80 46 127 -34 29 -58
29 -91 1z"/>
<path d="M10955 7208 c-55 -48 -26 -128 45 -128 96 0 108 128 14 146 -24 4
-37 0 -59 -18z"/>
<path d="M2667 7184 c-4 -4 -7 -135 -7 -291 l0 -283 -167 0 -168 -1 -78 -55
c-43 -30 -82 -67 -87 -80 -6 -15 -10 -227 -10 -510 l0 -484 -157 0 c-87 0
-163 -4 -170 -8 -25 -16 -32 -66 -30 -225 3 -210 0 -207 134 -207 85 0 94 -2
91 -17 -2 -12 -13 -18 -31 -18 -15 -1 -35 -9 -44 -18 -16 -16 -11 -17 95 -17
l112 0 0 -170 0 -170 -27 -5 c-99 -20 -225 -78 -247 -113 -3 -5 8 -21 24 -37
l28 -27 44 29 c52 35 119 63 153 63 20 0 25 -5 25 -24 0 -21 -7 -26 -50 -36
-27 -7 -68 -25 -91 -42 l-42 -30 31 -30 30 -30 28 21 c16 11 44 24 62 27 29 6
32 4 32 -19 0 -17 -7 -26 -22 -30 -13 -4 -32 -13 -43 -21 -19 -14 -19 -16 23
-58 l42 -44 0 -1301 c0 -838 4 -1311 10 -1328 15 -40 64 -55 179 -55 l100 0 3
-83 3 -82 210 0 210 0 3 83 3 83 617 -1 c437 -1 626 -4 649 -12 21 -8 36 -22
42 -40 10 -28 13 -29 63 -26 47 3 53 6 56 26 7 50 19 51 703 51 544 1 638 -1
655 -14 25 -19 65 -19 90 0 16 12 97 14 532 15 l512 0 0 -85 0 -85 210 0 210
0 0 85 0 85 578 0 c403 0 581 -3 589 -11 8 -8 13 -8 17 0 19 30 111 -1 125
-41 9 -26 14 -28 64 -28 52 0 55 2 60 28 4 20 15 31 40 40 41 15 74 15 82 2 5
-8 11 -8 20 0 8 7 200 10 608 10 509 -1 597 -3 607 -15 16 -19 61 -19 86 0 16
12 97 14 532 15 l512 0 0 -85 0 -85 213 2 212 3 3 82 3 83 562 2 c419 2 567 0
583 -9 17 -9 26 -9 42 3 18 12 25 11 65 -6 32 -14 47 -27 49 -43 3 -19 10 -22
60 -25 54 -3 56 -2 62 25 5 21 17 33 48 46 38 15 44 16 65 1 23 -15 26 -14 64
25 39 38 40 41 25 64 -15 21 -14 27 1 65 13 31 25 43 46 48 27 6 28 8 25 62
-3 51 -5 57 -26 60 -31 5 -63 76 -50 112 11 29 -2 57 -37 83 -20 14 -28 15
-49 5 -21 -9 -33 -8 -66 7 -22 10 -43 27 -46 39 -9 28 -22 36 -64 36 -42 0
-56 -8 -61 -35 -5 -24 -73 -58 -100 -50 -18 6 -19 18 -19 236 l0 231 30 29
c61 61 60 166 -1 225 l-29 28 0 542 c0 458 2 543 14 553 27 23 30 70 7 102
-21 28 -21 29 -21 953 0 1033 -7 951 74 916 32 -13 45 -25 48 -42 3 -20 9 -23
56 -26 51 -3 54 -2 65 27 13 36 78 66 108 51 27 -15 35 -13 74 24 35 33 36 36
21 59 -15 21 -15 27 1 65 12 28 27 45 46 51 25 9 27 14 27 61 0 47 -2 53 -28
62 -18 7 -33 25 -45 51 -16 37 -16 43 -1 64 15 23 14 26 -21 59 -39 37 -47 39
-74 24 -13 -6 -31 -5 -59 7 -31 12 -42 22 -47 45 -7 28 -8 29 -63 26 -51 -3
-57 -5 -60 -26 -3 -17 -16 -29 -48 -42 -24 -11 -50 -17 -58 -14 -7 3 -16 26
-20 52 l-6 47 -96 58 -96 57 -374 -2 -374 -3 -2 290 -3 290 -220 0 -220 0 -3
-287 -2 -287 -300 -3 c-276 -3 -300 -2 -300 14 0 26 -15 30 -41 10 -13 -10
-32 -22 -42 -25 -15 -6 -16 -4 -7 13 13 25 50 50 72 50 13 0 18 8 18 25 0 31
-17 32 -71 5 -24 -13 -46 -34 -56 -55 -17 -35 -43 -54 -43 -31 0 44 91 126
141 126 24 0 29 4 29 25 0 29 -13 31 -74 13 -50 -15 -119 -82 -135 -131 l-13
-37 -1084 0 c-955 0 -1085 2 -1090 15 -8 19 -51 19 -61 0 -7 -12 -68 -15 -421
-15 l-413 -1 1 273 c0 208 -3 278 -12 291 -12 16 -33 17 -223 15 l-210 -3 -3
-294 c-2 -261 -4 -292 -18 -287 -9 3 -143 6 -299 6 -275 0 -283 1 -288 20 -5
18 -8 19 -31 9 -14 -7 -26 -15 -26 -19 0 -4 -9 -10 -20 -13 -11 -3 -20 -2 -20
2 0 13 55 59 74 63 20 3 31 34 15 43 -5 4 -29 -3 -54 -14 -32 -14 -50 -30 -62
-55 -16 -35 -43 -49 -43 -23 0 16 43 75 67 92 10 7 37 18 61 25 30 9 42 19 42
32 0 21 -17 23 -74 6 -52 -16 -121 -84 -136 -135 l-12 -38 -1086 3 c-951 2
-1087 4 -1095 17 -10 19 -46 19 -53 0 -5 -13 -62 -15 -425 -15 l-419 0 -2 288
-3 287 -211 3 c-115 1 -213 -1 -217 -4z m4723 -319 l0 -255 -150 -1 c-82 -1
-158 -2 -167 -3 -17 -1 -18 18 -21 249 -1 137 -1 254 2 260 2 6 63 9 170 7
l166 -3 0 -254z m-4340 0 l0 -255 -170 0 -170 0 0 255 0 255 170 0 170 0 0
-255z m8680 -2 l0 -258 -165 3 -165 3 0 254 0 255 165 0 165 0 0 -257z m-5346
-261 c3 -5 -1 -9 -9 -9 -8 0 -12 4 -9 9 3 4 7 8 9 8 2 0 6 -4 9 -8z m-1799
-14 c605 -1 1055 -5 1000 -8 l-100 -6 100 -4 100 -5 -125 -9 c-81 -6 -116 -12
-100 -17 14 -4 -706 -7 -1599 -8 l-1624 -1 41 30 41 30 188 2 c103 2 366 2
583 1 217 -2 890 -4 1495 -5z m8007 -26 l42 -27 -1450 -3 c-1425 -3 -1874 1
-1874 19 0 5 30 10 68 11 56 1 46 3 -58 12 -108 10 -35 12 540 16 366 3 1121
4 1678 2 l1013 -3 41 -27z m-3329 -9 c-13 -2 -33 -2 -45 0 -13 2 -3 4 22 4 25
0 35 -2 23 -4z m3434 -59 l28 -26 2 -2422 c2 -2375 1 -2423 -17 -2454 l-20
-32 -1952 0 c-4132 0 -8181 0 -8356 0 l-182 0 -20 33 c-20 32 -20 57 -20 2447
0 2203 1 2418 16 2438 9 13 26 27 38 32 12 5 2317 9 5238 9 l5217 1 28 -26z
m318 -198 c116 -63 116 -247 0 -313 -47 -27 -131 -31 -173 -9 -31 16 -74 61
-91 93 -16 31 -14 119 3 152 20 38 80 89 114 97 15 3 32 7 37 9 18 7 70 -7
110 -29z m-10865 -1013 l0 -158 -137 2 c-76 1 -146 3 -155 3 -16 0 -18 14 -18
148 0 82 3 152 7 155 3 4 73 7 155 7 l148 0 0 -157z m-50 -198 c0 -8 -7 -15
-15 -15 -16 0 -20 12 -8 23 11 12 23 8 23 -8z m10670 -2359 c0 -16 -18 -31
-27 -22 -8 8 5 36 17 36 5 0 10 -6 10 -14z m20 -63 c0 -10 -5 -25 -10 -33 -7
-11 -10 -7 -10 18 0 17 5 32 10 32 6 0 10 -8 10 -17z m217 -704 c46 -22 85
-77 98 -136 16 -80 -49 -180 -135 -203 -116 -31 -230 55 -230 175 0 142 138
227 267 164z m-10387 -444 c29 -31 37 -31 71 1 17 16 35 24 50 22 20 -3 16 -8
-33 -50 l-55 -47 -49 50 c-39 40 -45 49 -28 49 11 0 31 -11 44 -25z m4345 -5
l31 -30 34 30 c19 16 44 29 55 29 16 0 10 -9 -28 -44 -27 -25 -54 -45 -61 -45
-6 0 -32 20 -56 45 -35 36 -40 45 -25 45 10 0 33 -13 50 -30z m4345 0 l34 -30
31 30 c17 17 40 30 50 30 16 0 10 -10 -27 -45 -26 -25 -51 -45 -56 -45 -6 0
-32 20 -59 45 -38 35 -44 44 -28 44 11 0 36 -13 55 -29z"/>
<path d="M12664 6458 l-19 -23 23 19 c21 18 27 26 19 26 -2 0 -12 -10 -23 -22z"/>
<path d="M12619 6413 c-13 -16 -12 -17 4 -4 9 7 17 15 17 17 0 8 -8 3 -21 -13z"/>
<path d="M12565 6361 c-14 -12 -2811 -21 -6797 -21 l-3428 0 0 -2295 0 -2295
5105 0 5105 0 0 2292 c0 2118 1 2293 17 2310 16 18 15 25 -2 9z m-2849 -985
c22 -8 68 -31 104 -51 60 -35 89 -51 195 -110 71 -40 398 -226 470 -267 39
-23 99 -58 135 -78 180 -102 217 -126 252 -163 21 -22 38 -45 38 -51 0 -6 -37
-32 -82 -57 -232 -128 -350 -196 -418 -239 -93 -59 -335 -197 -415 -237 -33
-17 -132 -72 -220 -123 -88 -50 -249 -142 -357 -203 -220 -124 -210 -111 -140
-190 52 -58 141 -112 216 -132 82 -22 207 -16 284 13 69 27 156 92 195 148 17
24 36 44 41 44 11 -1 332 -180 375 -210 l22 -15 -41 -60 c-121 -175 -314 -308
-527 -367 -116 -32 -346 -31 -458 0 -223 64 -426 209 -540 387 -19 30 -37 55
-40 55 -4 0 -4 -4 0 -9 6 -10 -30 -32 -283 -176 -194 -109 -173 -108 -227 -18
l-26 43 3 632 3 633 28 58 c43 87 51 92 467 329 19 11 103 59 185 105 83 47
179 102 215 123 160 94 308 175 340 186 47 17 158 17 206 0z m-5362 -232 c27
-2 50 -5 51 -6 2 -2 0 -18 -2 -35 l-5 -33 -63 0 c-56 0 -67 -4 -108 -35 -25
-19 -51 -35 -56 -35 -6 0 -11 -3 -11 -7 0 -5 -22 -45 -49 -91 -61 -102 -75
-161 -75 -317 -1 -111 1 -124 26 -170 17 -33 32 -49 42 -47 9 2 16 -1 16 -6 0
-4 18 -19 40 -31 l41 -23 67 21 c37 11 85 34 107 50 45 35 55 37 55 16 0 -8 5
-15 10 -15 18 0 10 -36 -13 -58 -67 -63 -216 -93 -305 -62 -28 10 -53 16 -56
13 -3 -3 -8 2 -12 11 -3 9 -10 16 -16 16 -11 0 -57 51 -58 64 0 5 -7 14 -15
20 -21 15 -32 130 -15 151 8 10 9 15 1 15 -6 0 -11 16 -11 35 0 40 19 183 27
205 3 8 7 30 10 48 4 38 42 103 71 124 11 7 22 24 27 37 17 56 176 170 215
154 8 -3 37 -7 64 -9z m1420 8 c3 -5 26 -9 51 -10 26 0 48 -2 51 -5 2 -2 1
-18 -2 -35 -6 -32 -7 -32 -69 -32 -56 0 -67 -3 -106 -35 -24 -19 -48 -35 -54
-35 -5 0 -23 -26 -40 -57 -16 -31 -39 -71 -50 -88 -39 -57 -63 -243 -46 -355
12 -73 40 -130 65 -130 8 0 20 -7 27 -17 8 -9 28 -22 46 -29 28 -12 40 -11 95
6 35 11 82 33 103 49 45 35 55 37 55 16 0 -8 5 -15 10 -15 6 0 10 -10 10 -22
-1 -49 -127 -108 -236 -110 -57 -1 -80 4 -128 27 -63 30 -108 72 -101 93 2 6
-2 12 -9 12 -18 0 -25 21 -33 90 -4 39 -2 60 6 65 9 5 9 10 0 21 -14 17 7 234
23 234 6 0 8 6 5 14 -8 20 12 88 23 81 6 -3 7 0 4 8 -3 8 10 31 30 52 19 20
38 46 41 57 14 41 107 119 172 143 46 17 50 17 57 7z m-667 -23 c8 -8 6 -27
-7 -67 -24 -78 -109 -304 -119 -317 -5 -5 -12 -28 -15 -50 -4 -22 -21 -64 -37
-92 -16 -29 -29 -60 -29 -69 0 -22 -79 -256 -93 -272 -5 -7 -12 -10 -15 -7 -3
3 -11 0 -19 -6 -10 -9 -17 -8 -28 1 -21 18 -19 51 9 112 13 29 34 85 46 125
26 88 85 223 100 233 6 4 8 13 5 22 -3 8 5 39 19 69 13 30 32 81 41 114 10 33
31 89 48 125 39 83 67 106 94 79z m1052 -228 c6 -10 7 -21 4 -25 -3 -3 -2 -6
3 -6 6 0 10 -24 9 -52 l0 -53 55 0 c41 0 62 -5 82 -21 26 -20 26 -22 10 -36
-11 -10 -36 -15 -74 -14 -49 2 -58 -1 -66 -19 -6 -12 -8 -33 -5 -46 5 -29 -21
-64 -55 -74 -31 -9 -45 28 -26 74 18 42 5 61 -39 59 -58 -1 -67 2 -73 27 -3
14 -11 25 -16 25 -6 0 -5 6 2 15 7 8 16 13 20 10 5 -3 11 -1 15 5 4 6 19 5 42
-5 19 -8 39 -12 44 -9 5 3 8 26 8 53 -2 49 14 91 32 91 6 0 7 5 4 10 -3 6 -2
10 4 10 6 0 15 -8 20 -19z m441 4 c8 -9 14 -43 14 -78 l1 -62 55 0 c41 0 62
-5 83 -21 24 -20 25 -23 10 -35 -9 -8 -39 -14 -68 -15 -28 0 -57 -4 -63 -8 -7
-4 -12 -26 -12 -49 0 -23 -4 -47 -8 -53 -8 -13 -46 -34 -61 -34 -17 0 -24 60
-10 92 15 37 0 50 -48 43 -35 -5 -67 16 -78 52 -5 19 -1 23 31 29 23 4 44 2
56 -5 29 -18 38 -5 38 53 0 40 5 57 20 71 11 10 17 22 14 26 -9 15 13 10 26
-6z m3810 -885 l0 -50 50 0 50 0 0 -52 0 -53 -50 3 -50 4 0 -57 0 -56 -52 3
-51 3 -1 50 -1 50 -52 3 -53 3 0 49 0 49 53 3 52 3 2 40 c1 22 2 43 2 48 1 4
24 7 51 7 l50 0 0 -50z m380 0 l0 -50 50 0 50 0 0 -50 0 -50 -49 0 -50 0 -3
-52 -3 -53 -50 0 -50 0 -3 53 -3 52 -50 0 -49 0 0 50 0 50 50 0 50 0 0 50 0
50 55 0 55 0 0 -50z m-6327 -25 c0 -14 -18 -54 -39 -88 -36 -59 -172 -224
-186 -226 -8 -1 -46 -33 -102 -84 l-41 -38 61 -57 c34 -31 85 -77 114 -101 28
-24 63 -62 76 -83 13 -21 31 -38 38 -38 8 0 29 -18 46 -40 25 -32 30 -46 25
-69 -3 -16 -12 -32 -20 -35 -14 -5 -155 135 -155 155 0 5 -4 8 -9 4 -5 -3 -29
17 -53 45 -24 27 -47 50 -53 50 -5 0 -31 21 -57 47 -73 71 -75 66 -65 -187 3
-74 -3 -97 -27 -108 -38 -17 -65 -5 -60 26 3 15 5 213 5 440 -1 450 -2 439 55
414 26 -12 35 -62 12 -62 -7 0 -5 -5 5 -11 14 -8 17 -18 12 -36 -7 -29 -9
-253 -2 -260 10 -9 74 31 130 83 32 30 64 54 72 54 7 0 16 9 20 19 3 11 29 48
56 83 28 34 57 77 64 95 14 34 53 58 69 43 5 -5 9 -20 9 -35z m131 34 c24 20
37 -19 32 -96 -6 -101 -3 -520 4 -548 2 -5 4 -14 5 -20 17 -114 25 -130 68
-140 30 -8 93 10 121 34 26 22 67 88 77 125 5 17 14 146 19 286 11 277 16 330
34 356 20 27 56 9 56 -27 0 -16 3 -29 8 -29 9 0 6 -85 -4 -101 -11 -18 -6
-443 6 -474 5 -14 9 -63 9 -110 0 -46 1 -88 4 -92 3 -4 1 -18 -4 -31 -6 -17
-15 -22 -31 -20 -26 4 -41 56 -36 130 4 54 -4 53 -34 -5 -58 -114 -215 -176
-294 -115 -40 31 -53 49 -54 73 0 11 -7 31 -16 43 -12 17 -17 55 -20 140 -2
64 -8 120 -13 125 -6 6 -4 24 4 46 9 27 10 39 1 47 -12 11 -13 156 -2 222 3
17 1 32 -4 32 -5 0 -8 32 -8 70 1 54 5 73 17 80 10 5 21 4 28 -2 9 -7 17 -7
27 1z m847 -8 c47 -13 117 -68 138 -108 19 -37 13 -155 -8 -176 -6 -6 -11 -17
-11 -23 0 -25 -46 -83 -75 -95 -16 -7 -34 -19 -38 -26 -4 -7 -17 -13 -28 -13
-24 0 -79 -27 -79 -39 0 -4 10 -16 21 -27 12 -10 30 -39 41 -63 10 -24 32 -61
48 -81 17 -21 30 -42 30 -46 0 -13 90 -93 109 -96 23 -4 25 -49 3 -76 l-18
-23 -52 27 c-29 15 -52 32 -52 37 0 6 -13 25 -29 42 -28 29 -79 113 -121 200
-10 22 -29 50 -42 62 -27 26 -95 56 -101 45 -3 -4 -1 -34 5 -67 7 -49 5 -244
-3 -281 -1 -5 2 -18 6 -28 14 -33 -39 -59 -75 -36 -13 8 -15 39 -12 202 2 106
5 201 8 211 3 10 0 25 -7 33 -11 14 -14 204 -6 394 l2 55 60 6 c91 8 234 3
286 -10z m643 7 c22 -7 56 -23 74 -37 33 -24 33 -24 14 -44 -19 -18 -21 -18
-46 -2 -65 43 -194 -19 -303 -144 -53 -61 -95 -142 -80 -157 3 -3 54 -10 114
-15 124 -11 268 -35 293 -49 47 -25 82 -177 50 -214 -7 -9 -9 -16 -5 -16 4 0
2 -7 -5 -15 -7 -8 -9 -15 -4 -15 5 0 2 -6 -7 -13 -9 -7 -19 -22 -23 -35 -8
-26 -88 -81 -94 -64 -1 5 -15 -1 -29 -14 -15 -13 -38 -24 -54 -24 -15 0 -30
-4 -33 -9 -3 -5 -35 -14 -70 -21 -78 -15 -118 -4 -169 43 -60 56 -90 149 -52
163 8 4 12 11 9 16 -4 6 4 8 17 6 18 -2 25 -10 27 -33 8 -86 56 -121 152 -112
104 9 198 67 230 142 22 51 16 109 -14 128 -24 16 -117 29 -217 32 -73 2 -171
40 -189 74 -16 30 -4 133 21 181 23 45 109 140 127 140 5 0 15 7 22 15 20 24
138 75 156 68 12 -5 15 -3 9 6 -4 8 -2 17 6 22 18 11 24 11 73 -3z m226 -11
c0 -5 9 -2 20 8 19 17 20 17 29 -9 6 -14 8 -54 5 -88 -2 -35 -3 -137 -2 -228
1 -91 3 -196 3 -235 1 -38 2 -72 4 -75 1 -3 4 -24 7 -48 6 -66 29 -110 59
-118 40 -10 106 14 141 51 57 61 67 95 76 270 23 442 25 466 39 480 9 9 23 12
37 8 20 -5 23 -11 20 -39 -2 -18 0 -30 4 -28 4 3 6 -21 3 -53 -8 -97 -5 -495
4 -533 5 -19 9 -79 9 -132 0 -89 -2 -98 -20 -104 -31 -10 -39 7 -45 96 l-6 82
-31 -54 c-51 -89 -126 -138 -211 -138 -61 0 -122 36 -131 78 -3 15 -14 45 -25
68 -15 32 -19 63 -19 138 0 54 -5 106 -10 116 -7 13 -7 28 0 46 6 15 8 35 4
43 -9 20 -14 192 -6 206 10 16 11 55 2 55 -12 0 -11 132 1 147 12 13 39 7 39
-10z"/>
<path d="M9269 4183 c-13 -16 -12 -17 4 -4 9 7 17 15 17 17 0 8 -8 3 -21 -13z"/>
<path d="M5203 3949 c-6 -8 -13 -43 -16 -79 -3 -36 -8 -78 -11 -95 -3 -16 -3
-57 1 -90 8 -58 9 -59 43 -66 19 -4 41 -4 50 1 9 5 23 4 32 -1 11 -6 19 -6 23
1 3 5 23 17 43 27 53 24 102 65 102 85 0 9 6 23 14 31 8 8 18 30 21 49 10 53
-16 95 -73 120 -60 26 -212 38 -229 17z"/>
<path d="M2269 1683 c-13 -16 -12 -17 4 -4 9 7 17 15 17 17 0 8 -8 3 -21 -13z"/>
<path d="M12660 1636 c0 -2 8 -10 18 -17 15 -13 16 -12 3 4 -13 16 -21 21 -21
13z"/>
<path d="M3929 7161 c-112 -35 -153 -170 -78 -255 38 -44 78 -60 138 -54 92 9
147 77 139 170 -6 55 -30 94 -74 120 -37 21 -91 29 -125 19z m61 -31 c0 -5
-16 -10 -36 -10 -21 0 -33 4 -29 10 3 6 19 10 36 10 16 0 29 -4 29 -10z m60
-20 c0 -4 -6 -13 -14 -19 -17 -14 -29 0 -20 22 5 15 34 13 34 -3z m-108 -15
c6 -7 -43 -65 -54 -65 -10 0 -11 54 -1 63 8 8 47 9 55 2z m139 -48 c-18 -18
-38 8 -21 28 12 15 14 15 23 0 6 -11 5 -21 -2 -28z m-84 25 c9 -6 -2 -22 -36
-56 -40 -39 -49 -45 -55 -31 -4 12 6 29 31 56 41 42 42 42 60 31z m-137 -47
c0 -19 -4 -35 -10 -35 -11 0 -14 53 -3 63 11 12 13 8 13 -28z m146 -54 c-36
-36 -48 -43 -58 -33 -18 18 70 107 89 90 12 -9 6 -20 -31 -57z m93 22 c0 -33
-1 -35 -9 -15 -8 20 -4 52 6 52 2 0 4 -17 3 -37z m-39 -43 c0 -27 -3 -30 -32
-30 l-32 0 29 30 c16 17 30 30 32 30 2 0 3 -13 3 -30z m-174 9 c10 -17 -13
-36 -27 -22 -12 12 -4 33 11 33 5 0 12 -5 16 -11z m54 -49 c0 -14 -20 -22 -37
-16 -12 5 -13 9 -3 21 11 14 40 10 40 -5z m60 -32 c-28 -10 -62 -2 -42 11 8 4
25 6 40 3 l26 -5 -24 -9z"/>
<path d="M8245 7150 c-137 -68 -113 -266 36 -299 92 -20 178 42 193 138 10 67
-47 153 -113 171 -51 14 -71 13 -116 -10z m85 -20 c0 -5 -14 -10 -31 -10 -17
0 -28 4 -24 10 3 6 17 10 31 10 13 0 24 -4 24 -10z m60 -19 c0 -14 -18 -23
-30 -16 -6 4 -8 11 -5 16 8 12 35 12 35 0z m-128 -48 c-19 -19 -27 -22 -33
-12 -13 22 8 47 34 42 l24 -5 -25 -25z m168 2 c0 -8 -5 -17 -11 -21 -16 -9
-30 18 -17 33 12 15 28 8 28 -12z m-123 -43 c-27 -27 -49 -42 -57 -37 -17 10
68 95 87 88 11 -4 3 -17 -30 -51z m-107 -2 c0 -16 -4 -30 -10 -30 -11 0 -14
43 -3 53 11 12 13 8 13 -23z m183 6 c3 -7 -13 -32 -37 -55 -32 -31 -45 -38
-54 -29 -8 8 -1 21 31 54 46 48 52 51 60 30z m66 -18 c0 -7 -4 -22 -8 -33 -7
-17 -8 -17 -13 8 -3 14 -3 29 0 32 10 9 22 5 21 -7z m-49 -58 c0 -27 -3 -30
-32 -30 l-32 0 29 30 c16 17 30 30 32 30 2 0 3 -13 3 -30z m-170 6 c0 -16 -18
-31 -27 -22 -8 8 5 36 17 36 5 0 10 -6 10 -14z m50 -47 c0 -12 -29 -24 -37
-16 -3 4 -3 13 0 21 6 16 37 11 37 -5z m55 -29 c-34 -7 -40 -5 -31 8 3 5 18 7
33 4 l28 -6 -30 -6z"/>
<path d="M12591 7152 c-19 -9 -48 -34 -64 -54 -23 -29 -29 -46 -29 -86 0 -98
63 -164 157 -164 141 0 212 159 118 263 -52 57 -121 73 -182 41z m79 -22 c0
-5 -15 -10 -32 -10 -25 0 -29 3 -18 10 20 13 50 13 50 0z m60 -19 c0 -14 -18
-23 -30 -16 -6 4 -8 11 -5 16 8 12 35 12 35 0z m-112 -19 c9 -6 4 -16 -18 -37
l-30 -29 0 31 c0 27 9 39 30 42 3 0 11 -3 18 -7z m29 -70 c-27 -27 -49 -42
-57 -37 -17 10 68 95 87 88 11 -4 3 -17 -30 -51z m121 41 c-4 -22 -22 -20 -26
1 -2 10 3 16 13 16 10 0 15 -7 13 -17z m-228 -43 c0 -16 -4 -30 -10 -30 -5 0
-8 10 -6 23 3 12 5 25 5 30 2 21 11 3 11 -23z m183 6 c8 -20 -76 -99 -90 -85
-8 8 0 23 30 55 45 48 52 51 60 30z m67 -23 c0 -10 -5 -25 -10 -33 -7 -11 -10
-7 -10 18 0 17 5 32 10 32 6 0 10 -8 10 -17z m-47 -70 c-3 -7 -19 -13 -36 -13
l-31 0 29 30 c26 27 30 29 36 13 3 -10 4 -24 2 -30z m-169 28 c3 -5 -1 -14 -8
-20 -16 -13 -32 2 -21 19 8 12 22 13 29 1z m46 -51 c0 -5 -5 -12 -11 -16 -14
-8 -33 11 -25 25 7 11 36 4 36 -9z m80 -26 c0 -2 -14 -4 -31 -4 -16 0 -28 4
-25 9 5 8 56 3 56 -5z"/>
<path d="M14315 7135 c-37 -36 -31 -45 30 -45 l55 0 0 35 c0 32 -2 35 -30 35
-19 0 -40 -9 -55 -25z"/>
<path d="M4453 6992 c-28 -10 -71 -31 -94 -46 l-42 -28 26 -25 25 -26 33 25
c81 60 202 64 291 9 l51 -32 20 20 c20 20 20 21 2 41 -59 66 -215 97 -312 62z"/>
<path d="M8779 6986 c-31 -12 -71 -33 -89 -46 l-32 -23 25 -24 24 -24 38 25
c93 64 213 61 308 -6 27 -19 29 -19 48 -3 27 25 24 37 -15 63 -94 64 -209 79
-307 38z"/>
<path d="M13126 6990 c-27 -10 -66 -31 -88 -46 l-39 -27 24 -24 24 -24 53 33
c49 30 60 33 135 33 75 0 86 -3 135 -33 l53 -33 24 23 24 24 -43 31 c-88 63
-207 80 -302 43z"/>
<path d="M4470 6884 c-19 -8 -42 -22 -52 -31 -18 -16 -17 -17 3 -39 21 -22 21
-22 53 -3 44 27 125 26 160 -2 l27 -21 24 22 c14 13 22 27 18 32 -3 6 -29 21
-57 34 -59 27 -124 30 -176 8z"/>
<path d="M8810 6884 c-19 -8 -42 -22 -52 -31 -18 -16 -17 -17 3 -40 l22 -23
34 21 c42 26 131 23 163 -6 20 -18 21 -18 45 5 20 19 23 26 12 38 -38 47 -159
66 -227 36z"/>
<path d="M13145 6881 c-61 -27 -70 -43 -40 -71 24 -23 25 -23 45 -5 32 29 121
32 163 6 l34 -21 22 23 c20 23 21 24 3 40 -52 47 -157 60 -227 28z"/>
<path d="M4494 6776 c-18 -14 -18 -16 21 -55 l39 -41 38 37 c21 20 38 40 38
43 0 12 -51 30 -84 30 -17 0 -41 -6 -52 -14z"/>
<path d="M5757 6772 c-32 -35 -15 -82 28 -82 29 0 45 19 45 52 0 21 -6 31 -26
38 -32 12 -28 13 -47 -8z"/>
<path d="M8834 6776 c-18 -14 -18 -16 21 -56 l41 -40 39 41 c39 39 39 41 21
55 -26 18 -97 18 -122 0z"/>
<path d="M10096 6774 c-19 -18 -21 -55 -4 -72 17 -17 54 -15 72 4 21 21 20 40
-4 64 -24 24 -43 25 -64 4z"/>
<path d="M13174 6776 c-18 -14 -18 -16 21 -56 l41 -40 39 40 c38 39 38 40 19
55 -25 19 -95 19 -120 1z"/>
<path d="M5171 6757 c-17 -21 -3 -47 26 -47 21 0 24 4 21 27 -3 31 -29 41 -47
20z"/>
<path d="M9517 6764 c-12 -13 -8 -52 7 -57 8 -3 22 1 33 8 14 11 16 18 7 32
-12 19 -36 28 -47 17z"/>
<path d="M13857 6764 c-12 -12 -8 -41 8 -54 20 -17 47 5 43 34 -3 21 -37 34
-51 20z"/>
<path d="M2006 6710 c-37 -12 -66 -38 -82 -77 -19 -44 -17 -63 5 -63 12 0 21
9 25 26 8 32 52 74 77 74 14 0 19 7 19 25 0 27 -1 27 -44 15z"/>
<path d="M2025 6638 c-54 -29 -59 -68 -10 -68 34 0 35 1 35 40 0 22 -1 40 -2
40 -2 0 -12 -6 -23 -12z"/>
<path d="M12635 6634 c-18 -19 -16 -33 7 -48 12 -7 21 -6 32 3 22 18 20 38 -3
51 -15 7 -24 6 -36 -6z"/>
<path d="M14122 6407 c-161 -161 -161 -159 -66 -257 65 -67 74 -103 15 -59
-18 13 -36 19 -47 15 -15 -6 3 -28 96 -121 71 -71 117 -110 121 -103 9 15 1
38 -23 64 -14 15 -16 24 -8 29 7 4 40 -20 80 -59 83 -81 110 -86 110 -23 0 42
-3 46 -165 207 -91 91 -165 170 -165 175 0 6 49 60 110 120 l109 109 56 -57
55 -56 0 36 c0 30 -7 44 -41 75 -70 65 -82 60 -237 -95z m96 -338 c-2 -6 -8
-10 -13 -10 -5 0 -11 4 -13 10 -2 6 4 11 13 11 9 0 15 -5 13 -11z"/>
<path d="M0 6352 c0 -50 4 -62 26 -83 72 -66 72 -192 0 -258 -22 -21 -26 -33
-26 -83 0 -56 1 -58 21 -48 16 9 28 9 51 -1 28 -11 32 -10 65 24 35 34 36 37
21 59 -14 21 -14 28 -2 49 7 13 13 32 14 42 0 11 10 20 30 24 29 5 30 7 30 63
0 56 -1 58 -30 64 -20 3 -30 12 -30 23 -1 10 -7 29 -14 42 -12 21 -12 28 2 49
15 22 14 25 -21 59 -33 34 -37 35 -65 24 -23 -10 -35 -10 -51 -1 -20 10 -21 8
-21 -48z"/>
<path d="M2016 6177 c-22 -16 -18 -65 6 -80 28 -18 68 7 68 42 0 44 -39 63
-74 38z"/>
<path d="M405 5997 c-26 -40 6 -83 53 -70 26 6 40 48 25 72 -17 27 -60 26 -78
-2z"/>
<path d="M13432 6008 c-27 -27 -3 -88 34 -88 18 0 54 36 54 54 0 37 -61 61
-88 34z"/>
<path d="M1667 5703 c-13 -13 -7 -61 9 -67 42 -16 74 16 54 54 -10 19 -49 27
-63 13z"/>
<path d="M1291 5606 l-65 -65 94 -96 c52 -52 99 -95 105 -95 10 0 128 111 122
116 -1 1 -42 4 -92 6 l-90 4 -5 97 -5 98 -64 -65z"/>
<path d="M14318 5613 c-32 -32 -58 -63 -58 -69 0 -5 32 -41 71 -79 l70 -70 -7
95 c-3 52 -9 114 -13 138 l-6 43 -57 -58z"/>
<path d="M609 5647 c-108 -31 -202 -115 -240 -216 -17 -45 -20 -72 -17 -141 3
-73 9 -94 38 -149 41 -76 120 -144 194 -166 73 -22 174 -19 243 7 43 15 74 37
119 83 51 52 64 73 84 134 70 220 -77 439 -308 456 -40 3 -85 0 -113 -8z m-47
-122 c-32 -48 -40 -55 -69 -55 -33 0 -33 0 -17 25 15 23 99 85 115 85 4 0 -9
-25 -29 -55z m203 -7 l36 -43 -50 -3 c-28 -2 -75 -2 -103 0 l-53 3 49 52 c55
60 62 60 121 -9z m144 -12 l35 -36 -41 0 c-35 0 -42 4 -53 29 -6 16 -20 37
-31 47 -10 9 -19 21 -19 26 0 15 74 -29 109 -66z m-409 -115 c0 -40 -11 -51
-52 -51 -37 0 -40 2 -34 23 3 12 6 28 6 35 0 7 15 12 40 12 33 0 40 -3 40 -19z
m334 -3 c13 -49 14 -48 -139 -48 l-145 0 6 28 c4 15 9 30 11 35 2 4 62 7 132
7 125 0 129 -1 135 -22z m139 15 c2 -5 7 -20 11 -35 6 -27 5 -28 -39 -28 -38
0 -45 3 -45 19 0 11 -3 26 -6 35 -5 13 2 16 34 16 23 0 43 -3 45 -7z m-479
-139 c3 -9 6 -27 6 -40 0 -21 -5 -24 -35 -24 -29 0 -37 5 -45 26 -18 45 -13
54 29 54 26 0 41 -5 45 -16z m346 -1 c0 -10 -3 -28 -6 -41 -6 -22 -9 -22 -135
-21 -122 1 -129 2 -134 22 -18 62 -30 57 129 57 132 0 146 -2 146 -17z m146
-3 c-3 -11 -9 -29 -12 -41 -5 -16 -12 -20 -42 -17 -35 3 -37 5 -33 33 4 42 7
45 52 45 36 0 40 -2 35 -20z m-425 -167 c19 -27 36 -52 38 -57 7 -17 -79 38
-111 71 l-32 33 35 0 c30 0 40 -6 70 -47z m219 20 c-31 -36 -73 -73 -82 -73
-11 0 -78 61 -89 81 -9 18 -4 19 92 19 l102 0 -23 -27z m140 8 c-10 -20 -56
-56 -98 -78 -27 -14 -27 -14 13 49 26 41 35 47 63 48 29 0 32 -2 22 -19z"/>
<path d="M1382 5580 l3 -85 62 -3 c113 -6 113 -7 18 88 l-86 85 3 -85z"/>
<path d="M13619 5644 c-113 -34 -216 -147 -239 -261 -34 -163 52 -329 207
-400 75 -35 182 -36 268 -3 82 32 163 113 195 195 26 70 31 178 10 240 -60
179 -262 285 -441 229z m-36 -123 c-30 -40 -44 -51 -65 -51 -16 0 -28 4 -28 8
0 19 117 108 128 98 1 -2 -14 -27 -35 -55z m295 32 c22 -16 50 -40 62 -55 l21
-28 -35 0 c-20 0 -36 4 -36 9 0 5 -16 30 -35 55 -40 53 -35 57 23 19z m-100
-25 c23 -23 42 -46 42 -50 0 -4 -43 -8 -95 -8 -54 0 -95 4 -95 10 0 15 76 90
92 90 8 0 34 -19 56 -42z m-252 -134 c-3 -9 -6 -24 -6 -35 0 -16 -7 -19 -40
-19 -33 0 -40 3 -40 19 0 40 11 51 52 51 33 0 39 -3 34 -16z m335 -21 l6 -33
-143 0 c-152 0 -151 -1 -138 48 6 22 9 23 137 20 l131 -3 7 -32z m143 15 c11
-43 7 -48 -34 -48 -25 0 -40 5 -40 13 0 6 -3 22 -6 35 -6 20 -3 22 34 22 33 0
41 -4 46 -22z m-483 -146 l7 -33 -42 3 c-38 3 -41 5 -44 36 -3 33 -3 33 34 30
34 -3 39 -6 45 -36z m342 31 c2 -5 0 -21 -4 -38 l-8 -30 -130 3 c-123 3 -129
4 -135 25 -13 47 -13 47 133 47 77 0 142 -3 144 -7z m147 -12 c0 -40 -11 -51
-52 -51 -37 0 -40 2 -34 23 3 12 6 28 6 35 0 7 15 12 40 12 33 0 40 -3 40 -19z
m-423 -172 c17 -27 29 -49 27 -49 -15 0 -64 33 -93 64 l-35 36 35 -1 c30 0 38
-6 66 -50z m211 19 c-14 -18 -37 -41 -52 -52 l-26 -20 -45 44 c-25 24 -45 48
-45 52 0 4 43 8 96 8 l97 0 -25 -32z m146 11 c-23 -26 -94 -79 -106 -79 -4 0
7 22 24 50 29 43 37 50 67 50 l34 0 -19 -21z"/>
<path d="M12760 4803 l0 -48 58 -11 c83 -16 150 -51 207 -109 58 -57 92 -123
108 -207 l11 -58 47 0 48 0 -6 53 c-24 215 -202 395 -416 422 l-57 7 0 -49z"/>
<path d="M0 4702 c0 -52 4 -64 35 -104 40 -52 75 -141 75 -193 l0 -35 50 0
c48 0 50 1 50 28 0 42 -27 136 -54 190 -26 51 -106 146 -137 163 -18 9 -19 5
-19 -49z"/>
<path d="M702 4438 l3 -253 150 0 150 0 0 250 0 250 -153 3 -152 3 2 -253z
m268 12 l0 -200 -115 0 -114 0 -3 196 c-2 108 -1 198 1 200 2 2 55 4 118 4
l113 0 0 -200z m-108 -235 c0 -5 -5 -11 -11 -13 -6 -2 -11 4 -11 13 0 9 5 15
11 13 6 -2 11 -8 11 -13z"/>
<path d="M12760 4643 l0 -50 38 -6 c81 -13 166 -98 179 -179 l6 -38 50 0 50 0
-7 43 c-22 138 -138 255 -271 274 l-45 6 0 -50z"/>
<path d="M13724 4677 c-2 -7 -3 -120 -2 -252 l3 -240 150 0 150 0 5 243 c3
133 4 247 2 252 -6 16 -301 13 -308 -3z m266 -233 l0 -194 -115 0 -115 0 0
193 c0 107 2 196 4 198 2 2 54 3 115 1 l111 -3 0 -195z m-100 -235 c0 -5 -4
-9 -10 -9 -5 0 -10 7 -10 16 0 8 5 12 10 9 6 -3 10 -10 10 -16z"/>
<path d="M1 4458 l-1 -88 26 0 c25 0 26 2 22 43 -3 23 -14 62 -26 87 l-20 45
-1 -87z"/>
<path d="M12760 4450 l0 -80 80 0 c77 0 80 1 80 24 0 51 -85 136 -136 136 -23
0 -24 -3 -24 -80z"/>
<path d="M1416 4424 c-31 -30 -8 -69 36 -62 26 3 37 41 18 64 -16 18 -35 18
-54 -2z"/>
<path d="M434 4110 c-12 -5 -24 -20 -28 -34 -4 -15 -14 -26 -24 -26 -9 -1 -28
-7 -41 -14 -21 -12 -28 -12 -49 2 -22 15 -25 14 -64 -25 -39 -40 -40 -41 -23
-66 12 -19 14 -30 6 -44 -6 -10 -15 -30 -21 -45 -7 -20 -16 -28 -34 -28 -18 0
-25 -7 -29 -30 -10 -49 2 -89 29 -96 16 -4 31 -21 43 -48 16 -37 17 -44 4 -70
-14 -28 -14 -30 21 -65 33 -33 38 -35 67 -24 41 16 116 -14 121 -49 3 -21 9
-23 60 -26 54 -3 56 -2 62 25 5 21 17 32 51 47 41 16 47 17 69 3 22 -15 25
-14 61 23 36 36 38 41 26 66 -18 40 13 111 52 120 27 6 28 8 25 62 -3 51 -5
57 -26 60 -35 5 -65 80 -49 121 11 29 9 34 -24 67 -33 32 -38 34 -62 23 -40
-18 -106 6 -119 42 -12 34 -59 47 -104 29z m144 -183 c54 -38 85 -97 84 -162
0 -59 -17 -97 -59 -137 -37 -35 -73 -48 -134 -48 -162 0 -246 187 -141 312 61
72 173 88 250 35z"/>
<path d="M13453 4112 c-6 -4 -16 -20 -22 -35 -6 -15 -16 -27 -23 -27 -7 0 -25
-6 -40 -14 -23 -12 -29 -12 -47 0 -24 17 -43 10 -81 -30 -21 -24 -23 -30 -13
-57 16 -41 -14 -116 -49 -121 -21 -3 -23 -9 -26 -60 -3 -55 -2 -56 26 -62 37
-9 68 -82 50 -122 -10 -22 -8 -29 27 -64 37 -38 40 -39 63 -24 21 14 27 14 57
0 18 -9 37 -16 43 -16 5 0 12 -13 16 -30 5 -29 7 -30 65 -30 56 0 59 1 64 28
9 39 77 68 117 47 26 -13 29 -12 65 25 36 36 38 41 26 64 -20 36 9 108 50 123
26 10 29 16 29 55 0 50 -7 64 -35 69 -11 3 -28 21 -39 44 -15 32 -16 46 -8 69
9 22 8 33 -4 51 -26 40 -58 56 -90 44 -39 -15 -101 11 -110 45 -8 32 -78 49
-111 28z m115 -167 c49 -21 81 -52 103 -100 58 -126 -34 -265 -175 -265 -79 0
-141 41 -171 113 -41 99 0 202 100 248 49 23 94 24 143 4z"/>
<path d="M1120 3650 c-19 -5 -47 -22 -62 -39 l-28 -31 0 -311 c0 -271 2 -315
16 -339 30 -50 69 -60 229 -60 l145 0 0 -25 c0 -23 -3 -25 -49 -25 -51 0 -101
-28 -101 -56 0 -12 42 -14 265 -14 205 0 265 3 265 13 -1 34 -42 57 -104 57
-42 0 -46 2 -46 25 l0 25 138 0 c159 0 203 9 232 49 19 28 20 43 20 343 0 358
-1 363 -78 386 -46 14 -782 15 -842 2z m834 -86 c24 -23 24 -495 0 -518 -13
-14 -65 -16 -418 -16 -299 0 -405 3 -414 12 -17 17 -17 509 0 526 9 9 115 12
414 12 353 0 405 -2 418 -16z m-394 -604 c0 -24 -26 -38 -42 -22 -16 16 -2 42
22 42 13 0 20 -7 20 -20z"/>
<path d="M14120 3642 c-67 -33 -70 -51 -70 -377 0 -256 2 -294 18 -325 28 -57
67 -70 210 -70 l122 0 0 80 0 80 -119 0 c-95 0 -123 3 -135 16 -14 13 -16 51
-16 259 0 208 2 246 16 259 12 13 40 16 135 16 l119 0 0 40 0 40 -122 0 c-97
0 -130 -4 -158 -18z"/>
<path d="M436 3041 c-32 -35 8 -91 54 -76 24 7 37 51 23 74 -15 24 -56 25 -77
2z"/>
<path d="M13462 3048 c-27 -27 -5 -88 32 -88 26 0 56 28 56 53 0 38 -61 62
-88 35z"/>
<path d="M14315 2795 c-37 -36 -31 -45 30 -45 l55 0 0 35 c0 32 -2 35 -30 35
-19 0 -40 -9 -55 -25z"/>
<path d="M142 2660 c-23 -5 -65 -21 -92 -36 -42 -23 -50 -32 -50 -56 0 -39 21
-44 64 -14 97 65 211 60 318 -16 15 -11 22 -9 40 10 l23 23 -25 20 c-71 58
-189 87 -278 69z"/>
<path d="M13150 2657 c-49 -14 -110 -48 -131 -73 -10 -13 -9 -19 9 -37 19 -18
25 -20 40 -9 63 44 99 56 167 57 61 0 78 -4 130 -33 59 -32 59 -32 79 -13 19
20 19 21 1 41 -54 60 -202 93 -295 67z"/>
<path d="M155 2551 c-38 -10 -68 -26 -85 -46 -11 -14 -10 -19 7 -36 l20 -20
34 20 c21 13 51 21 79 21 28 0 58 -8 79 -21 l34 -20 21 21 21 21 -28 24 c-44
39 -113 52 -182 36z"/>
<path d="M13144 2536 c-64 -30 -69 -38 -41 -64 l23 -22 39 20 c50 26 101 25
144 -1 l34 -21 24 25 25 24 -29 20 c-69 48 -142 55 -219 19z"/>
<path d="M164 2441 c-36 -16 -35 -26 6 -66 l40 -39 40 39 c34 33 38 41 26 53
-17 17 -84 25 -112 13z"/>
<path d="M1988 2436 c-81 -29 -135 -90 -145 -165 -5 -37 -3 -41 16 -41 13 0
21 6 21 17 0 9 9 36 21 60 22 46 87 93 127 93 17 0 22 6 22 25 0 28 -9 30 -62
11z"/>
<path d="M13183 2438 c-13 -6 -23 -14 -23 -17 0 -4 17 -24 38 -44 l38 -37 39
40 c38 39 38 40 19 55 -22 17 -79 18 -111 3z"/>
<path d="M1406 2421 c-21 -23 -14 -56 15 -72 43 -23 92 44 57 79 -18 18 -53
14 -72 -7z"/>
<path d="M13863 2423 c-18 -7 -16 -52 3 -60 23 -9 51 23 38 44 -12 19 -23 24
-41 16z"/>
<path d="M823 2404 c-8 -21 19 -46 40 -38 9 3 17 17 17 30 0 19 -5 24 -25 24
-14 0 -28 -7 -32 -16z"/>
<path d="M1975 2350 c-32 -21 -65 -73 -65 -102 0 -29 38 -23 46 7 7 28 57 75
80 75 8 0 14 9 14 20 0 26 -35 26 -75 0z"/>
<path d="M2000 2278 c-30 -33 -25 -48 15 -48 33 0 35 2 35 35 0 41 -19 46 -50
13z"/>
<path d="M1102 2066 c-166 -164 -166 -166 -71 -262 44 -44 60 -67 53 -74 -7
-7 -16 -4 -29 10 -17 19 -65 28 -65 12 0 -4 49 -56 110 -117 89 -89 110 -106
116 -91 4 11 -2 29 -15 47 -44 59 -8 50 59 -15 99 -95 96 -96 262 72 100 100
136 143 133 157 -2 11 -4 24 -4 28 -1 4 -83 89 -182 188 -140 137 -188 179
-207 179 -19 0 -58 -33 -160 -134z m340 -83 c93 -92 168 -172 168 -178 0 -16
-204 -215 -221 -215 -15 0 -349 329 -349 345 0 15 204 215 219 215 9 0 91 -75
183 -167z m-250 -258 c0 -5 -5 -11 -11 -13 -6 -2 -11 4 -11 13 0 9 5 15 11 13
6 -2 11 -8 11 -13z"/>
<path d="M14123 2067 c-163 -163 -163 -162 -67 -258 41 -41 64 -72 59 -79 -5
-8 -14 -5 -30 10 -14 14 -33 20 -49 18 -25 -3 -18 -11 89 -118 104 -104 115
-112 115 -87 0 15 -9 36 -19 46 -15 15 -17 22 -7 30 9 8 29 -7 76 -54 42 -42
72 -65 87 -65 20 0 23 5 23 43 0 41 -3 45 -165 207 -91 91 -165 169 -165 175
0 13 202 215 215 215 5 0 33 -23 62 -52 l53 -52 0 35 c0 28 -9 43 -43 77 -69
68 -79 65 -234 -91z m97 -342 c0 -8 -4 -15 -9 -15 -13 0 -22 16 -14 24 11 11
23 6 23 -9z"/>
<path d="M0 2014 c0 -53 3 -64 26 -85 56 -51 70 -140 33 -216 -12 -24 -30 -48
-40 -54 -15 -8 -19 -21 -19 -69 0 -33 2 -60 5 -60 3 0 14 6 25 12 15 10 22 10
32 0 20 -20 42 -14 76 21 29 30 31 36 21 62 -15 41 11 102 46 111 23 6 25 11
25 59 0 48 -2 54 -26 62 -16 5 -32 23 -44 50 -16 36 -17 43 -4 62 18 26 7 50
-37 82 -23 16 -33 19 -42 10 -15 -15 -50 -14 -65 1 -9 9 -12 -1 -12 -48z"/>
<path d="M2018 1839 c-21 -12 -24 -59 -6 -77 7 -7 21 -12 33 -12 12 0 26 5 33
12 19 19 15 66 -7 78 -24 12 -31 12 -53 -1z"/>
<path d="M404 1655 c-15 -23 -15 -27 0 -50 20 -30 61 -33 76 -6 14 27 13 47
-6 65 -23 23 -51 20 -70 -9z"/>
<path d="M13436 1667 c-22 -16 -18 -65 5 -80 47 -29 101 32 64 73 -21 23 -44
25 -69 7z"/>
<path d="M1672 1361 c-8 -5 -12 -21 -10 -37 2 -23 9 -30 29 -32 36 -4 55 21
41 53 -12 25 -36 32 -60 16z"/>
<path d="M6010 1355 c-26 -32 13 -81 48 -59 34 22 22 74 -18 74 -10 0 -23 -7
-30 -15z"/>
<path d="M10352 1358 c-30 -30 0 -75 43 -64 41 11 29 76 -15 76 -9 0 -21 -5
-28 -12z"/>
<path d="M1290 1265 l-65 -65 102 -102 101 -101 61 58 c34 32 61 62 61 67 0 4
-43 8 -95 8 l-95 0 -1 88 c-1 48 -1 93 0 100 1 6 0 12 -1 12 -2 0 -33 -29 -68
-65z"/>
<path d="M3719 1317 c-62 -48 -34 -137 43 -137 65 0 93 89 42 129 -30 23 -61
26 -85 8z"/>
<path d="M8059 1317 c-63 -48 -36 -137 42 -137 72 0 103 86 48 133 -24 20 -67
22 -90 4z"/>
<path d="M9978 1273 c-32 -32 -58 -65 -58 -74 0 -8 43 -57 95 -109 l96 -94 65
65 65 64 -88 3 c-48 2 -92 7 -97 12 -5 5 -12 50 -15 100 l-6 91 -57 -58z"/>
<path d="M10060 1246 c0 -63 4 -88 13 -92 8 -3 47 -4 87 -2 l73 3 -87 88 -86
89 0 -86z"/>
<path d="M12393 1308 c-32 -35 -35 -59 -13 -96 17 -27 26 -32 58 -32 73 0 108
75 57 125 -31 32 -75 33 -102 3z"/>
<path d="M14317 1269 c-40 -43 -56 -66 -51 -78 3 -9 35 -43 71 -76 l65 -60 -7
95 c-4 52 -10 114 -14 137 l-6 43 -58 -61z"/>
<path d="M631 1310 c-104 -22 -190 -86 -242 -182 -32 -60 -34 -68 -34 -163 0
-84 4 -107 23 -147 37 -75 96 -134 170 -170 58 -27 78 -32 147 -32 67 0 90 4
138 27 103 47 163 112 197 213 25 72 25 135 1 213 -52 167 -232 275 -400 241z
m-51 -102 c-12 -13 -28 -35 -36 -50 -12 -23 -21 -28 -51 -28 l-37 0 35 36 c32
33 99 77 108 69 1 -2 -7 -14 -19 -27z m271 3 c24 -15 55 -40 68 -55 l24 -26
-41 0 c-23 0 -42 4 -42 9 0 5 -16 30 -35 55 -19 25 -31 46 -27 46 4 0 28 -13
53 -29z m-93 -28 l44 -48 -51 -3 c-28 -2 -75 -2 -103 0 l-53 3 44 48 c24 26
51 47 59 47 9 0 36 -21 60 -47z m-258 -137 c0 -45 -10 -56 -51 -56 -42 0 -42
1 -33 49 6 28 10 31 45 31 35 0 39 -3 39 -24z m334 2 c16 -60 19 -59 -136 -56
l-143 3 4 30 c1 17 5 33 8 38 2 4 62 7 132 7 125 0 129 -1 135 -22z m139 15
c3 -5 7 -21 8 -38 4 -28 1 -30 -30 -33 -39 -4 -47 2 -56 46 -7 32 -6 32 34 32
22 0 42 -3 44 -7z m-479 -149 c16 -41 7 -54 -34 -54 -25 0 -40 5 -40 13 0 6
-3 22 -6 35 -6 20 -3 22 34 22 27 0 42 -5 46 -16z m346 4 c0 -7 -3 -23 -6 -35
-6 -22 -10 -23 -135 -23 -70 0 -130 3 -132 8 -2 4 -7 19 -11 35 l-6 27 145 0
c109 0 145 -3 145 -12z m139 -20 c-5 -18 -9 -34 -9 -35 0 -2 -18 -3 -41 -3
-33 0 -40 3 -35 16 3 9 6 24 6 35 0 16 7 19 44 19 l45 0 -10 -32z m-417 -153
c20 -30 34 -55 32 -55 -12 0 -83 51 -108 79 l-30 31 35 0 c31 0 39 -6 71 -55z
m218 25 c-25 -34 -68 -70 -85 -70 -12 0 -95 83 -95 95 0 3 45 5 101 5 l100 0
-21 -30z m139 4 c-25 -28 -107 -84 -122 -84 -5 0 4 15 21 34 17 19 33 44 37
55 5 17 15 21 47 21 l41 0 -24 -26z"/>
<path d="M1378 1235 l3 -85 87 0 87 0 -85 85 c-47 47 -87 85 -90 85 -3 0 -4
-38 -2 -85z"/>
<path d="M4977 1310 c-108 -19 -207 -95 -255 -198 -23 -49 -27 -70 -27 -147 0
-82 3 -97 33 -157 73 -148 235 -224 393 -184 295 76 366 463 115 630 -49 32
-162 69 -201 65 -5 -1 -31 -5 -58 -9z m-49 -97 c-14 -16 -33 -40 -43 -55 -14
-22 -25 -28 -53 -28 l-35 0 24 26 c26 29 107 84 123 84 5 0 -2 -12 -16 -27z
m263 -2 c24 -15 55 -40 68 -55 l24 -26 -35 0 c-28 0 -39 6 -53 28 -10 15 -29
39 -43 55 -33 35 -18 35 39 -2z m-92 -28 l46 -48 -53 -3 c-28 -2 -76 -2 -104
0 l-53 3 46 48 c25 26 52 47 59 47 7 0 34 -21 59 -47z m-258 -150 c-6 -36 -8
-38 -49 -41 -46 -3 -51 4 -32 52 8 22 16 26 48 26 l39 0 -6 -37z m333 21 c3
-9 6 -27 6 -40 l0 -24 -139 0 c-77 0 -142 3 -144 8 -2 4 0 22 5 40 l9 32 128
0 c108 0 130 -3 135 -16z m139 9 c3 -5 8 -23 12 -41 l7 -33 -43 3 c-42 3 -44
5 -50 41 l-6 37 38 0 c21 0 40 -3 42 -7z m-473 -152 c0 -11 3 -26 6 -35 5 -13
-2 -16 -35 -16 -35 0 -43 4 -51 26 -16 40 -13 44 35 44 38 0 45 -3 45 -19z
m340 0 c0 -49 -4 -51 -140 -51 -136 0 -140 2 -140 51 0 18 9 19 140 19 131 0
140 -1 140 -19z m144 -8 c-10 -42 -12 -43 -56 -43 -32 0 -39 3 -34 16 3 9 6
24 6 35 0 16 7 19 45 19 44 0 45 -1 39 -27z m-427 -148 c15 -25 31 -45 36 -45
4 0 7 -5 7 -10 0 -17 -72 26 -109 64 l-35 36 36 0 c32 0 39 -5 65 -45z m232
28 c-33 -45 -74 -83 -89 -83 -15 0 -56 38 -89 83 -13 16 -7 17 89 17 96 0 102
-1 89 -17z m120 -19 c-32 -33 -116 -86 -108 -67 2 4 19 29 38 56 30 41 40 47
70 47 l35 0 -35 -36z"/>
<path d="M5625 1260 l-59 -60 102 -102 102 -102 60 59 c33 33 60 63 60 67 0 4
-42 9 -92 10 l-93 3 -3 93 c-1 50 -6 92 -10 92 -4 0 -34 -27 -67 -60z"/>
<path d="M5720 1242 c0 -60 4 -84 13 -88 8 -3 46 -4 86 -2 l72 3 -86 85 -85
85 0 -83z"/>
<path d="M9292 1304 c-29 -7 -65 -20 -81 -28 -50 -26 -122 -105 -149 -164 -23
-49 -27 -70 -27 -147 0 -82 3 -97 33 -157 37 -76 88 -125 172 -165 46 -23 69
-27 140 -28 72 0 94 4 142 27 75 35 138 94 174 165 26 53 29 67 29 158 0 86
-3 107 -24 150 -49 99 -133 166 -240 191 -70 17 -102 17 -169 -2z m-28 -96
c-11 -13 -28 -35 -37 -50 -13 -21 -26 -28 -47 -28 -17 0 -30 4 -30 8 0 19 94
92 119 92 11 0 10 -5 -5 -22z m175 -25 l46 -48 -53 -3 c-28 -2 -75 -2 -103 0
l-51 3 46 48 c25 26 51 47 58 47 6 0 32 -21 57 -47z m107 18 c21 -15 48 -38
58 -50 l19 -21 -35 0 c-31 0 -39 6 -59 38 -13 20 -27 43 -32 50 -14 21 8 13
49 -17z m-364 -166 c-5 -37 -1 -33 -44 -40 -43 -7 -48 -1 -36 43 8 31 12 33
46 30 35 -3 37 -5 34 -33z m332 19 c3 -9 6 -24 6 -35 0 -18 -8 -19 -119 -19
-66 0 -126 -3 -135 -6 -22 -8 -31 21 -18 52 11 24 14 24 136 24 104 0 125 -3
130 -16z m149 -17 c11 -34 8 -39 -37 -42 -28 -1 -36 2 -40 19 -13 49 -8 57 31
54 30 -2 38 -8 46 -31z m-481 -142 c4 -35 4 -35 -34 -35 -21 0 -38 1 -38 3 0
1 -4 17 -9 35 l-10 32 44 0 c42 0 43 -1 47 -35z m338 16 c0 -49 -4 -51 -140
-51 -124 0 -128 1 -134 23 -13 47 -14 47 134 47 131 0 140 -1 140 -19z m150
10 c0 -5 -4 -21 -10 -35 -8 -21 -16 -26 -45 -26 -36 0 -44 15 -29 54 7 17 84
23 84 7z m-429 -168 c19 -27 36 -52 38 -57 7 -17 -79 38 -111 71 l-32 33 35 0
c30 0 40 -6 70 -47z m217 15 c-14 -18 -36 -41 -50 -51 -32 -24 -53 -14 -98 43
l-32 40 102 0 103 0 -25 -32z m131 -4 c-18 -20 -51 -44 -71 -55 l-37 -19 37
55 c33 48 41 54 71 55 l35 0 -35 -36z"/>
<path d="M13647 1309 c-202 -48 -324 -260 -258 -451 54 -156 175 -243 336
-243 66 1 91 6 140 28 79 37 147 104 181 180 38 85 38 197 2 278 -71 157 -242
246 -401 208z m-38 -96 c-14 -16 -33 -40 -42 -55 -13 -20 -26 -28 -47 -28 -42
0 -30 22 38 70 64 46 86 52 51 13z m320 -47 l35 -36 -37 0 c-20 0 -37 4 -37 9
0 4 -16 29 -36 55 l-36 47 38 -19 c22 -11 55 -36 73 -56z m-164 33 c20 -18 40
-40 46 -50 9 -18 4 -19 -86 -19 -52 0 -95 3 -95 8 0 10 80 92 91 92 4 0 24
-14 44 -31z m-243 -134 c2 -3 3 -18 0 -34 -3 -26 -9 -30 -43 -33 -41 -4 -45 2
-33 50 5 17 14 22 38 22 18 0 35 -2 38 -5z m331 -2 c3 -5 7 -21 8 -36 l4 -28
-140 0 c-77 0 -141 4 -143 9 -1 5 2 21 7 35 l11 27 124 0 c69 0 127 -3 129 -7z
m147 -12 c18 -34 12 -48 -22 -54 -39 -6 -46 -1 -54 41 -6 31 -6 32 29 32 26 0
39 -6 47 -19z m-480 -140 c0 -11 3 -26 6 -35 5 -13 -1 -16 -34 -16 -41 0 -52
11 -52 51 0 16 7 19 40 19 33 0 40 -3 40 -19z m341 -13 l-7 -33 -127 -3 -127
-3 -10 26 c-6 15 -10 31 -10 36 0 5 61 9 144 9 l143 0 -6 -32z m149 20 c-1
-45 -13 -58 -51 -58 -40 0 -44 5 -33 48 5 18 13 22 45 22 25 0 39 -5 39 -12z
m-443 -145 c9 -16 26 -38 37 -50 10 -13 17 -25 15 -28 -8 -7 -107 63 -119 85
-10 18 -8 20 19 20 22 0 35 -7 48 -27z m253 22 c0 -12 -83 -95 -95 -95 -15 0
-95 76 -95 90 0 6 38 10 95 10 52 0 95 -2 95 -5z m123 -19 c-18 -24 -105 -87
-111 -81 -2 2 12 26 30 54 28 43 38 50 66 50 l33 1 -18 -24z"/>
<path d="M1814 1119 c-17 -18 -19 -41 -22 -173 -4 -173 6 -233 41 -241 12 -3
56 -7 97 -9 41 -3 78 -5 83 -5 4 -1 7 -8 7 -16 0 -10 -10 -15 -34 -15 -42 0
-68 -25 -35 -33 30 -8 289 -5 289 3 0 16 -27 30 -58 30 -27 0 -33 4 -30 18 3
15 14 17 77 14 90 -4 126 9 141 51 6 19 10 97 9 189 -1 141 -3 160 -21 183
l-19 25 -253 0 c-244 0 -254 -1 -272 -21z m511 -179 l0 -155 -220 -3 c-121 -1
-230 0 -242 3 -23 5 -23 8 -23 154 0 110 3 151 13 154 6 3 116 5 242 4 l230
-2 0 -155z m-225 -201 c0 -5 -7 -9 -15 -9 -15 0 -20 12 -9 23 8 8 24 -1 24
-14z"/>
<path d="M6162 1124 c-21 -15 -22 -20 -22 -204 0 -158 3 -191 16 -204 18 -19
15 -18 119 -20 67 -1 80 -4 83 -18 3 -14 -4 -18 -31 -18 -32 0 -68 -23 -50
-33 13 -7 303 -5 303 2 0 16 -26 31 -51 31 -28 0 -47 16 -35 28 4 3 40 5 81 4
78 -3 127 12 139 43 3 9 6 92 6 184 0 155 -2 170 -21 195 l-20 26 -248 0
c-207 0 -250 -2 -269 -16z m503 -184 l0 -155 -220 -3 c-121 -1 -230 0 -242 3
-23 5 -23 8 -23 154 0 110 3 151 13 155 6 3 116 4 242 3 l230 -2 0 -155z
m-225 -201 c0 -5 -7 -9 -15 -9 -15 0 -20 12 -9 23 8 8 24 -1 24 -14z"/>
<path d="M10502 1124 c-21 -15 -22 -20 -22 -202 0 -103 4 -192 8 -198 16 -24
54 -34 131 -34 64 0 81 -3 81 -14 0 -10 -13 -16 -37 -18 -27 -2 -39 -8 -41
-20 -3 -17 9 -18 148 -18 139 0 151 1 148 18 -2 12 -14 18 -41 20 -24 2 -37 8
-37 18 0 11 18 14 85 14 78 0 88 2 110 25 25 24 25 26 25 205 0 167 -1 181
-20 200 -19 19 -33 20 -268 20 -208 0 -251 -2 -270 -16z m501 -34 c4 0 7 -67
7 -149 0 -127 -2 -150 -16 -155 -26 -10 -438 -7 -454 4 -12 7 -15 37 -17 147
-1 75 2 142 7 147 7 9 253 12 473 6z m-223 -350 c0 -5 -4 -10 -10 -10 -5 0
-10 5 -10 10 0 6 5 10 10 10 6 0 10 -4 10 -10z"/>
<path d="M3195 1108 c-3 -13 -4 -122 -3 -243 l3 -220 146 -3 147 -3 6 27 c8
30 6 432 -1 452 -4 9 -43 12 -149 12 -141 0 -144 0 -149 -22z m173 -27 l92 -1
0 -190 0 -190 -115 0 -115 0 0 188 c0 104 3 191 6 194 3 3 13 5 22 3 9 -2 59
-4 110 -4z m-17 -414 c-1 -12 -15 -9 -19 4 -3 6 1 10 8 8 6 -3 11 -8 11 -12z"/>
<path d="M7540 885 l0 -245 150 0 150 0 -2 243 -3 242 -147 3 -148 3 0 -246z
m260 5 l0 -190 -116 0 -116 0 6 31 c3 17 6 103 6 190 l0 159 110 0 110 0 0
-190z m-106 -231 c-3 -5 -10 -7 -15 -3 -5 3 -7 10 -3 15 3 5 10 7 15 3 5 -3 7
-10 3 -15z"/>
<path d="M11880 886 l0 -245 83 -3 c45 -2 112 -2 150 0 l67 3 0 244 0 245
-150 0 -150 0 0 -244z m260 4 l0 -190 -110 0 -110 0 0 190 0 190 110 0 110 0
0 -190z m-100 -231 c0 -5 -4 -9 -10 -9 -5 0 -10 7 -10 16 0 8 5 12 10 9 6 -3
10 -10 10 -16z"/>
<path d="M4075 502 c-3 -3 -5 -24 -5 -48 l0 -42 53 -7 c163 -20 319 -179 329
-334 l2 -41 48 0 c48 0 48 0 48 33 -1 162 -145 354 -310 412 -49 17 -157 35
-165 27z"/>
<path d="M8419 508 c0 -2 -2 -24 -4 -49 l-4 -47 47 -7 c84 -13 150 -44 212
-102 66 -60 104 -129 120 -212 6 -30 11 -56 13 -57 1 -1 22 -4 47 -5 l45 -4
-4 45 c-16 224 -190 400 -428 434 -24 3 -43 5 -44 4z"/>
<path d="M12760 461 l0 -49 64 -12 c87 -16 178 -71 226 -135 51 -68 66 -100
80 -173 l13 -62 48 0 49 0 -6 43 c-34 239 -191 396 -431 431 l-43 6 0 -49z"/>
<path d="M0 358 c0 -55 3 -68 24 -87 33 -31 78 -136 84 -194 l5 -47 49 0 50 0
-7 57 c-4 32 -16 82 -27 111 -23 61 -97 163 -145 200 l-33 25 0 -65z"/>
<path d="M3620 405 c-15 -18 -10 -45 13 -59 34 -22 73 27 47 59 -16 19 -44 19
-60 0z"/>
<path d="M7962 408 c-27 -27 -6 -68 35 -68 29 0 48 33 33 60 -12 22 -49 27
-68 8z"/>
<path d="M12300 400 c-15 -28 4 -60 35 -60 31 0 50 32 35 60 -6 12 -21 20 -35
20 -14 0 -29 -8 -35 -20z"/>
<path d="M2771 366 c-16 -20 -3 -46 24 -46 13 0 26 7 29 16 7 19 -10 44 -29
44 -7 0 -18 -6 -24 -14z"/>
<path d="M7114 365 c-9 -23 3 -45 26 -45 25 0 37 25 20 45 -16 19 -39 19 -46
0z"/>
<path d="M11454 366 c-10 -26 4 -48 28 -44 17 2 23 10 23 28 0 18 -6 26 -23
28 -13 2 -25 -3 -28 -12z"/>
<path d="M707 344 c-4 -4 -7 -83 -7 -176 0 -161 1 -168 20 -168 19 0 20 7 20
150 l0 150 115 0 115 0 0 -150 c0 -144 1 -150 20 -150 20 0 20 5 18 173 l-3
172 -146 3 c-80 1 -148 -1 -152 -4z"/>
<path d="M4077 343 c-4 -3 -7 -25 -7 -49 l0 -42 45 -6 c82 -13 161 -96 180
-189 5 -25 9 -27 50 -27 43 0 45 1 45 30 0 93 -84 211 -183 255 -57 25 -120
39 -130 28z"/>
<path d="M5047 344 c-4 -4 -7 -83 -7 -176 0 -161 1 -168 20 -168 19 0 20 7 20
150 l0 150 115 0 115 0 0 -150 c0 -144 1 -150 20 -150 20 0 20 5 18 173 l-3
172 -146 3 c-80 1 -148 -1 -152 -4z"/>
<path d="M8419 348 c0 -1 -2 -24 -4 -50 l-3 -46 43 -6 c81 -13 153 -83 176
-174 l11 -42 48 0 48 0 -5 43 c-13 99 -94 207 -186 247 -39 17 -126 36 -128
28z"/>
<path d="M9387 344 c-4 -4 -7 -83 -7 -176 0 -161 1 -168 20 -168 19 0 20 7 20
150 l0 150 115 0 115 0 0 -150 c0 -144 1 -150 20 -150 20 0 20 5 18 173 l-3
172 -146 3 c-80 1 -148 -1 -152 -4z"/>
<path d="M12760 302 c0 -50 0 -50 37 -57 21 -4 49 -13 63 -20 43 -22 98 -91
110 -137 6 -24 12 -48 14 -53 2 -6 24 -9 50 -7 l47 4 -6 42 c-21 134 -136 249
-272 271 l-43 7 0 -50z"/>
<path d="M13727 343 c-4 -3 -7 -82 -7 -175 0 -161 1 -168 20 -168 19 0 20 7
20 150 l0 150 118 0 117 0 -3 -150 c-3 -146 -2 -150 17 -150 20 0 21 5 21 175
l0 175 -148 0 c-82 0 -152 -3 -155 -7z"/>
<path d="M10780 279 c-66 -11 -166 -58 -200 -94 l-24 -25 29 -30 28 -29 28 23
c106 90 274 98 390 20 28 -19 54 -34 58 -34 4 0 20 13 35 29 l27 28 -62 42
c-94 63 -204 88 -309 70z"/>
<path d="M2045 267 c-54 -18 -93 -39 -137 -75 l-37 -29 29 -28 29 -28 47 32
c121 80 273 80 382 1 23 -16 46 -30 51 -30 5 0 19 13 31 30 l21 29 -43 31
c-78 57 -124 72 -233 76 -66 3 -114 -1 -140 -9z"/>
<path d="M6383 266 c-53 -17 -122 -57 -147 -85 -20 -22 -20 -22 7 -49 23 -23
30 -25 45 -14 80 58 146 82 222 82 64 0 139 -24 188 -60 23 -16 46 -30 50 -30
5 0 19 12 33 26 l24 26 -35 30 c-66 57 -134 80 -245 84 -67 3 -114 -1 -142
-10z"/>
<path d="M0 112 c0 -81 0 -82 25 -82 31 0 33 26 9 97 -26 78 -34 74 -34 -15z"/>
<path d="M4070 110 l0 -80 84 0 84 0 -8 33 c-11 51 -37 84 -84 107 -72 34 -76
31 -76 -60z"/>
<path d="M8414 110 l-2 -80 85 0 85 0 -7 32 c-10 46 -50 96 -92 113 -65 27
-68 24 -69 -65z"/>
<path d="M12760 108 l0 -83 80 3 c76 3 80 5 80 26 0 34 -56 105 -95 122 -62
26 -65 23 -65 -68z"/>
<path d="M2085 133 c-28 -10 -65 -29 -84 -42 l-33 -24 29 -28 28 -29 49 25
c65 33 128 33 189 0 l47 -24 25 23 c30 28 31 34 8 53 -67 53 -181 73 -258 46z"/>
<path d="M6438 136 c-26 -7 -66 -25 -89 -40 l-42 -28 30 -29 29 -30 45 25 c60
35 129 35 194 1 l48 -26 23 22 c13 12 24 27 24 33 0 18 -68 58 -123 73 -61 16
-78 16 -139 -1z"/>
<path d="M10783 141 c-33 -8 -118 -55 -127 -70 -3 -4 7 -20 23 -35 l28 -27 48
26 c64 33 126 33 190 0 l48 -26 28 27 c34 33 28 44 -45 81 -54 27 -139 38
-193 24z"/>
<path d="M10099 79 c-18 -18 -19 -23 -6 -42 18 -28 40 -32 61 -12 20 21 20 39
0 59 -20 21 -30 20 -55 -5z"/>
<path d="M1411 76 c-7 -8 -10 -24 -6 -35 14 -45 79 -30 73 17 -2 21 -9 28 -29
30 -14 2 -31 -4 -38 -12z"/>
<path d="M5750 71 c-8 -17 -7 -24 10 -41 25 -25 32 -25 56 1 14 15 16 24 8 37
-16 26 -60 27 -74 3z"/>
<path d="M2148 3 c12 -2 30 -2 40 0 9 3 -1 5 -23 4 -22 0 -30 -2 -17 -4z"/>
<path d="M6498 3 c12 -2 30 -2 40 0 9 3 -1 5 -23 4 -22 0 -30 -2 -17 -4z"/>
<path d="M10828 3 c12 -2 32 -2 45 0 12 2 2 4 -23 4 -25 0 -35 -2 -22 -4z"/>
</g>
</svg>
